%FSLAX45Y45*%
G04 Gerber Fmt 4.5, Leading zero omitted, Abs format (unit mm)*
G04 Created by KiCad (PCBNEW (6.0.4-0)) date 2022-10-27 23:32:21*
%MOMM*%
%LPD*%
G01*
G04 APERTURE LIST*
%TA.AperFunction,Profile*%
%ADD10C,0.100000*%
%TD*%
%ADD11C,0.200000*%
%ADD12C,0.020000*%
%ADD13C,0.076200*%
%ADD14C,0.100000*%
%ADD15C,0.150000*%
G04 APERTURE END LIST*
D10*
X9993920Y-1270000D02*
X18790920Y-1270000D01*
X18790920Y-1270000D02*
X18790920Y-5929000D01*
X18790920Y-5929000D02*
X9993920Y-5929000D01*
X9993920Y-5929000D02*
X9993920Y-1270000D01*
D11*
D12*
X10721500Y-2631600D02*
X10741500Y-2651600D01*
X10741500Y-2631600D02*
X10721500Y-2651600D01*
X11013600Y-2174400D02*
X11033600Y-2194400D01*
X11033600Y-2174400D02*
X11013600Y-2194400D01*
X11013600Y-2339500D02*
X11033600Y-2359500D01*
X11033600Y-2339500D02*
X11013600Y-2359500D01*
X11013600Y-2441100D02*
X11033600Y-2461100D01*
X11033600Y-2441100D02*
X11013600Y-2461100D01*
X11013600Y-2580800D02*
X11033600Y-2600800D01*
X11033600Y-2580800D02*
X11013600Y-2600800D01*
X11204100Y-2326800D02*
X11224100Y-2346800D01*
X11224100Y-2326800D02*
X11204100Y-2346800D01*
X11216800Y-2098200D02*
X11236800Y-2118200D01*
X11236800Y-2098200D02*
X11216800Y-2118200D01*
X11216800Y-2441100D02*
X11236800Y-2461100D01*
X11236800Y-2441100D02*
X11216800Y-2461100D01*
X11216800Y-2580800D02*
X11236800Y-2600800D01*
X11236800Y-2580800D02*
X11216800Y-2600800D01*
X11293000Y-2364900D02*
X11313000Y-2384900D01*
X11313000Y-2364900D02*
X11293000Y-2384900D01*
X11331100Y-2212500D02*
X11351100Y-2232500D01*
X11351100Y-2212500D02*
X11331100Y-2232500D01*
X11356500Y-2504600D02*
X11376500Y-2524600D01*
X11376500Y-2504600D02*
X11356500Y-2524600D01*
X11394600Y-2276000D02*
X11414600Y-2296000D01*
X11414600Y-2276000D02*
X11394600Y-2296000D01*
X11445400Y-1920400D02*
X11465400Y-1940400D01*
X11465400Y-1920400D02*
X11445400Y-1940400D01*
X11458100Y-2085500D02*
X11478100Y-2105500D01*
X11478100Y-2085500D02*
X11458100Y-2105500D01*
X11458100Y-2403000D02*
X11478100Y-2423000D01*
X11478100Y-2403000D02*
X11458100Y-2423000D01*
X11496200Y-2199800D02*
X11516200Y-2219800D01*
X11516200Y-2199800D02*
X11496200Y-2219800D01*
X11496200Y-3152300D02*
X11516200Y-3172300D01*
X11516200Y-3152300D02*
X11496200Y-3172300D01*
X11597800Y-1564800D02*
X11617800Y-1584800D01*
X11617800Y-1564800D02*
X11597800Y-1584800D01*
X11597800Y-2199800D02*
X11617800Y-2219800D01*
X11617800Y-2199800D02*
X11597800Y-2219800D01*
X11597800Y-2326800D02*
X11617800Y-2346800D01*
X11617800Y-2326800D02*
X11597800Y-2346800D01*
X11597800Y-2695100D02*
X11617800Y-2715100D01*
X11617800Y-2695100D02*
X11597800Y-2715100D01*
X11610500Y-1920400D02*
X11630500Y-1940400D01*
X11630500Y-1920400D02*
X11610500Y-1940400D01*
X11610500Y-2072800D02*
X11630500Y-2092800D01*
X11630500Y-2072800D02*
X11610500Y-2092800D01*
X11724800Y-1450500D02*
X11744800Y-1470500D01*
X11744800Y-1450500D02*
X11724800Y-1470500D01*
X11737500Y-2390300D02*
X11757500Y-2410300D01*
X11757500Y-2390300D02*
X11737500Y-2410300D01*
X11737500Y-2796700D02*
X11757500Y-2816700D01*
X11757500Y-2796700D02*
X11737500Y-2816700D01*
X11851800Y-1564800D02*
X11871800Y-1584800D01*
X11871800Y-1564800D02*
X11851800Y-1584800D01*
X11940700Y-2390300D02*
X11960700Y-2410300D01*
X11960700Y-2390300D02*
X11940700Y-2410300D01*
X11953400Y-2123600D02*
X11973400Y-2143600D01*
X11973400Y-2123600D02*
X11953400Y-2143600D01*
X11991500Y-2809400D02*
X12011500Y-2829400D01*
X12011500Y-2809400D02*
X11991500Y-2829400D01*
X12042300Y-2009300D02*
X12062300Y-2029300D01*
X12062300Y-2009300D02*
X12042300Y-2029300D01*
X12042300Y-3342800D02*
X12062300Y-3362800D01*
X12062300Y-3342800D02*
X12042300Y-3362800D01*
X12067700Y-3914300D02*
X12087700Y-3934300D01*
X12087700Y-3914300D02*
X12067700Y-3934300D01*
X12067700Y-4168300D02*
X12087700Y-4188300D01*
X12087700Y-4168300D02*
X12067700Y-4188300D01*
X12080400Y-2250600D02*
X12100400Y-2270600D01*
X12100400Y-2250600D02*
X12080400Y-2270600D01*
X12093100Y-3152300D02*
X12113100Y-3172300D01*
X12113100Y-3152300D02*
X12093100Y-3172300D01*
X12118500Y-2415700D02*
X12138500Y-2435700D01*
X12138500Y-2415700D02*
X12118500Y-2435700D01*
X12118500Y-2568100D02*
X12138500Y-2588100D01*
X12138500Y-2568100D02*
X12118500Y-2588100D01*
X12143900Y-2695100D02*
X12163900Y-2715100D01*
X12163900Y-2695100D02*
X12143900Y-2715100D01*
X12182000Y-2149000D02*
X12202000Y-2169000D01*
X12202000Y-2149000D02*
X12182000Y-2169000D01*
X12182000Y-2352200D02*
X12202000Y-2372200D01*
X12202000Y-2352200D02*
X12182000Y-2372200D01*
X12245500Y-2631600D02*
X12265500Y-2651600D01*
X12265500Y-2631600D02*
X12245500Y-2651600D01*
X12245500Y-3342800D02*
X12265500Y-3362800D01*
X12265500Y-3342800D02*
X12245500Y-3362800D01*
X12296300Y-2276000D02*
X12316300Y-2296000D01*
X12316300Y-2276000D02*
X12296300Y-2296000D01*
X12309000Y-2796700D02*
X12329000Y-2816700D01*
X12329000Y-2796700D02*
X12309000Y-2816700D01*
X12309000Y-3914300D02*
X12329000Y-3934300D01*
X12329000Y-3914300D02*
X12309000Y-3934300D01*
X12309000Y-4168300D02*
X12329000Y-4188300D01*
X12329000Y-4168300D02*
X12309000Y-4188300D01*
X12385200Y-2364900D02*
X12405200Y-2384900D01*
X12405200Y-2364900D02*
X12385200Y-2384900D01*
X12385200Y-4625500D02*
X12405200Y-4645500D01*
X12405200Y-4625500D02*
X12385200Y-4645500D01*
X12397900Y-2631600D02*
X12417900Y-2651600D01*
X12417900Y-2631600D02*
X12397900Y-2651600D01*
X12397900Y-4054000D02*
X12417900Y-4074000D01*
X12417900Y-4054000D02*
X12397900Y-4074000D01*
X12397900Y-4181000D02*
X12417900Y-4201000D01*
X12417900Y-4181000D02*
X12397900Y-4201000D01*
X12397900Y-4308000D02*
X12417900Y-4328000D01*
X12417900Y-4308000D02*
X12397900Y-4328000D01*
X12397900Y-5349400D02*
X12417900Y-5369400D01*
X12417900Y-5349400D02*
X12397900Y-5369400D01*
X12410600Y-5095400D02*
X12430600Y-5115400D01*
X12430600Y-5095400D02*
X12410600Y-5115400D01*
X12486800Y-2898300D02*
X12506800Y-2918300D01*
X12506800Y-2898300D02*
X12486800Y-2918300D01*
X12499500Y-2745900D02*
X12519500Y-2765900D01*
X12519500Y-2745900D02*
X12499500Y-2765900D01*
X12524900Y-4054000D02*
X12544900Y-4074000D01*
X12544900Y-4054000D02*
X12524900Y-4074000D01*
X12563000Y-2415700D02*
X12583000Y-2435700D01*
X12583000Y-2415700D02*
X12563000Y-2435700D01*
X12563000Y-2568100D02*
X12583000Y-2588100D01*
X12583000Y-2568100D02*
X12563000Y-2588100D01*
X12651900Y-4054000D02*
X12671900Y-4074000D01*
X12671900Y-4054000D02*
X12651900Y-4074000D01*
X12664600Y-2745900D02*
X12684600Y-2765900D01*
X12684600Y-2745900D02*
X12664600Y-2765900D01*
X12664600Y-2898300D02*
X12684600Y-2918300D01*
X12684600Y-2898300D02*
X12664600Y-2918300D01*
X12690000Y-5349400D02*
X12710000Y-5369400D01*
X12710000Y-5349400D02*
X12690000Y-5369400D01*
X12702700Y-5095400D02*
X12722700Y-5115400D01*
X12722700Y-5095400D02*
X12702700Y-5115400D01*
X12766200Y-2364900D02*
X12786200Y-2384900D01*
X12786200Y-2364900D02*
X12766200Y-2384900D01*
X12778900Y-4054000D02*
X12798900Y-4074000D01*
X12798900Y-4054000D02*
X12778900Y-4074000D01*
X12804300Y-2745900D02*
X12824300Y-2765900D01*
X12824300Y-2745900D02*
X12804300Y-2765900D01*
X12804300Y-2898300D02*
X12824300Y-2918300D01*
X12824300Y-2898300D02*
X12804300Y-2918300D01*
X12817000Y-2593500D02*
X12837000Y-2613500D01*
X12837000Y-2593500D02*
X12817000Y-2613500D01*
X12842400Y-2491900D02*
X12862400Y-2511900D01*
X12862400Y-2491900D02*
X12842400Y-2511900D01*
X12905900Y-4054000D02*
X12925900Y-4074000D01*
X12925900Y-4054000D02*
X12905900Y-4074000D01*
X13032900Y-4054000D02*
X13052900Y-4074000D01*
X13052900Y-4054000D02*
X13032900Y-4074000D01*
X13159900Y-4054000D02*
X13179900Y-4074000D01*
X13179900Y-4054000D02*
X13159900Y-4074000D01*
X13274200Y-5641500D02*
X13294200Y-5661500D01*
X13294200Y-5641500D02*
X13274200Y-5661500D01*
X13286900Y-4054000D02*
X13306900Y-4074000D01*
X13306900Y-4054000D02*
X13286900Y-4074000D01*
X13286900Y-4181000D02*
X13306900Y-4201000D01*
X13306900Y-4181000D02*
X13286900Y-4201000D01*
X13286900Y-4308000D02*
X13306900Y-4328000D01*
X13306900Y-4308000D02*
X13286900Y-4328000D01*
X13388500Y-5527200D02*
X13408500Y-5547200D01*
X13408500Y-5527200D02*
X13388500Y-5547200D01*
X14546257Y-4421224D02*
X14566257Y-4441224D01*
X14566257Y-4421224D02*
X14546257Y-4441224D01*
X14546257Y-4486224D02*
X14566257Y-4506224D01*
X14566257Y-4486224D02*
X14546257Y-4506224D01*
X15382400Y-4486224D02*
X15402400Y-4506224D01*
X15402400Y-4486224D02*
X15382400Y-4506224D01*
X15466216Y-4531110D02*
X15486216Y-4551110D01*
X15486216Y-4531110D02*
X15466216Y-4551110D01*
X16019819Y-1885482D02*
X16039819Y-1905482D01*
X16039819Y-1885482D02*
X16019819Y-1905482D01*
X16065781Y-1839520D02*
X16085781Y-1859520D01*
X16085781Y-1839520D02*
X16065781Y-1859520D01*
X16246000Y-1895000D02*
X16266000Y-1915000D01*
X16266000Y-1895000D02*
X16246000Y-1915000D01*
X16754000Y-1818800D02*
X16774000Y-1838800D01*
X16774000Y-1818800D02*
X16754000Y-1838800D01*
X16881000Y-1895000D02*
X16901000Y-1915000D01*
X16901000Y-1895000D02*
X16881000Y-1915000D01*
X16957200Y-1818800D02*
X16977200Y-1838800D01*
X16977200Y-1818800D02*
X16957200Y-1838800D01*
X17173100Y-2542700D02*
X17193100Y-2562700D01*
X17193100Y-2542700D02*
X17173100Y-2562700D01*
X17414400Y-1768000D02*
X17434400Y-1788000D01*
X17434400Y-1768000D02*
X17414400Y-1788000D01*
X17427100Y-2542700D02*
X17447100Y-2562700D01*
X17447100Y-2542700D02*
X17427100Y-2562700D01*
D13*
X10616100Y-2263000D02*
G75*
G03*
X10616100Y-2263000I-38100J0D01*
G01*
X10616100Y-2517000D02*
G75*
G03*
X10616100Y-2517000I-38100J0D01*
G01*
X10616100Y-2771000D02*
G75*
G03*
X10616100Y-2771000I-38100J0D01*
G01*
X10616100Y-3279000D02*
G75*
G03*
X10616100Y-3279000I-38100J0D01*
G01*
X10916100Y-2263000D02*
G75*
G03*
X10916100Y-2263000I-38100J0D01*
G01*
X10916100Y-2517000D02*
G75*
G03*
X10916100Y-2517000I-38100J0D01*
G01*
X10916100Y-2771000D02*
G75*
G03*
X10916100Y-2771000I-38100J0D01*
G01*
X10916100Y-3025000D02*
G75*
G03*
X10916100Y-3025000I-38100J0D01*
G01*
X10916100Y-3279000D02*
G75*
G03*
X10916100Y-3279000I-38100J0D01*
G01*
D14*
X12990100Y-2149100D02*
X12990100Y-2249100D01*
X12940100Y-2199100D02*
X13040100Y-2199100D01*
X12990100Y-2403100D02*
X12990100Y-2503100D01*
X12940100Y-2453100D02*
X13040100Y-2453100D01*
X12990100Y-2657100D02*
X12990100Y-2757100D01*
X12940100Y-2707100D02*
X13040100Y-2707100D01*
X12990100Y-2911100D02*
X12990100Y-3011100D01*
X12940100Y-2961100D02*
X13040100Y-2961100D01*
X13244100Y-2149100D02*
X13244100Y-2249100D01*
X13194100Y-2199100D02*
X13294100Y-2199100D01*
X13244100Y-2403100D02*
X13244100Y-2503100D01*
X13194100Y-2453100D02*
X13294100Y-2453100D01*
X13244100Y-2657100D02*
X13244100Y-2757100D01*
X13194100Y-2707100D02*
X13294100Y-2707100D01*
X13244100Y-2911100D02*
X13244100Y-3011100D01*
X13194100Y-2961100D02*
X13294100Y-2961100D01*
X13498100Y-2149100D02*
X13498100Y-2249100D01*
X13448100Y-2199100D02*
X13548100Y-2199100D01*
X13498100Y-2403100D02*
X13498100Y-2503100D01*
X13448100Y-2453100D02*
X13548100Y-2453100D01*
X13752100Y-2149100D02*
X13752100Y-2249100D01*
X13702100Y-2199100D02*
X13802100Y-2199100D01*
X13752100Y-2403100D02*
X13752100Y-2503100D01*
X13702100Y-2453100D02*
X13802100Y-2453100D01*
X14006100Y-2149100D02*
X14006100Y-2249100D01*
X13956100Y-2199100D02*
X14056100Y-2199100D01*
X14006100Y-2403100D02*
X14006100Y-2503100D01*
X13956100Y-2453100D02*
X14056100Y-2453100D01*
X14260100Y-2149100D02*
X14260100Y-2249100D01*
X14210100Y-2199100D02*
X14310100Y-2199100D01*
X14260100Y-2403100D02*
X14260100Y-2503100D01*
X14210100Y-2453100D02*
X14310100Y-2453100D01*
X14266100Y-5195100D02*
X14266100Y-5295100D01*
X14216100Y-5245100D02*
X14316100Y-5245100D01*
X14514100Y-2149100D02*
X14514100Y-2249100D01*
X14464100Y-2199100D02*
X14564100Y-2199100D01*
X14514100Y-2403100D02*
X14514100Y-2503100D01*
X14464100Y-2453100D02*
X14564100Y-2453100D01*
X14520100Y-5195100D02*
X14520100Y-5295100D01*
X14470100Y-5245100D02*
X14570100Y-5245100D01*
X14768100Y-2149100D02*
X14768100Y-2249100D01*
X14718100Y-2199100D02*
X14818100Y-2199100D01*
X14768100Y-2403100D02*
X14768100Y-2503100D01*
X14718100Y-2453100D02*
X14818100Y-2453100D01*
X14935200Y-1474000D02*
X14935200Y-1574000D01*
X14885200Y-1524000D02*
X14985200Y-1524000D01*
X14935200Y-4877600D02*
X14935200Y-4977600D01*
X14885200Y-4927600D02*
X14985200Y-4927600D01*
X15022100Y-2149100D02*
X15022100Y-2249100D01*
X14972100Y-2199100D02*
X15072100Y-2199100D01*
X15022100Y-2403100D02*
X15022100Y-2503100D01*
X14972100Y-2453100D02*
X15072100Y-2453100D01*
X15189200Y-1474000D02*
X15189200Y-1574000D01*
X15139200Y-1524000D02*
X15239200Y-1524000D01*
X15189200Y-4877600D02*
X15189200Y-4977600D01*
X15139200Y-4927600D02*
X15239200Y-4927600D01*
X15276100Y-2149100D02*
X15276100Y-2249100D01*
X15226100Y-2199100D02*
X15326100Y-2199100D01*
X15276100Y-2403100D02*
X15276100Y-2503100D01*
X15226100Y-2453100D02*
X15326100Y-2453100D01*
X15443200Y-1474000D02*
X15443200Y-1574000D01*
X15393200Y-1524000D02*
X15493200Y-1524000D01*
X15443200Y-4877600D02*
X15443200Y-4977600D01*
X15393200Y-4927600D02*
X15493200Y-4927600D01*
X15530100Y-2149100D02*
X15530100Y-2249100D01*
X15480100Y-2199100D02*
X15580100Y-2199100D01*
X15530100Y-2403100D02*
X15530100Y-2503100D01*
X15480100Y-2453100D02*
X15580100Y-2453100D01*
X15697200Y-1474000D02*
X15697200Y-1574000D01*
X15647200Y-1524000D02*
X15747200Y-1524000D01*
X15697200Y-4877600D02*
X15697200Y-4977600D01*
X15647200Y-4927600D02*
X15747200Y-4927600D01*
X15784100Y-2149100D02*
X15784100Y-2249100D01*
X15734100Y-2199100D02*
X15834100Y-2199100D01*
X15784100Y-2403100D02*
X15784100Y-2503100D01*
X15734100Y-2453100D02*
X15834100Y-2453100D01*
X15951200Y-1474000D02*
X15951200Y-1574000D01*
X15901200Y-1524000D02*
X16001200Y-1524000D01*
X15951200Y-4877600D02*
X15951200Y-4977600D01*
X15901200Y-4927600D02*
X16001200Y-4927600D01*
X16038100Y-2149100D02*
X16038100Y-2249100D01*
X15988100Y-2199100D02*
X16088100Y-2199100D01*
X16038100Y-2403100D02*
X16038100Y-2503100D01*
X15988100Y-2453100D02*
X16088100Y-2453100D01*
X16205200Y-1474000D02*
X16205200Y-1574000D01*
X16155200Y-1524000D02*
X16255200Y-1524000D01*
X16205200Y-4877600D02*
X16205200Y-4977600D01*
X16155200Y-4927600D02*
X16255200Y-4927600D01*
X16292100Y-2149100D02*
X16292100Y-2249100D01*
X16242100Y-2199100D02*
X16342100Y-2199100D01*
X16292100Y-2403100D02*
X16292100Y-2503100D01*
X16242100Y-2453100D02*
X16342100Y-2453100D01*
X16459200Y-1474000D02*
X16459200Y-1574000D01*
X16409200Y-1524000D02*
X16509200Y-1524000D01*
X16459200Y-4877600D02*
X16459200Y-4977600D01*
X16409200Y-4927600D02*
X16509200Y-4927600D01*
X16546100Y-2149100D02*
X16546100Y-2249100D01*
X16496100Y-2199100D02*
X16596100Y-2199100D01*
X16546100Y-2403100D02*
X16546100Y-2503100D01*
X16496100Y-2453100D02*
X16596100Y-2453100D01*
X16713200Y-1474000D02*
X16713200Y-1574000D01*
X16663200Y-1524000D02*
X16763200Y-1524000D01*
X16713200Y-4877600D02*
X16713200Y-4977600D01*
X16663200Y-4927600D02*
X16763200Y-4927600D01*
X16800100Y-2149100D02*
X16800100Y-2249100D01*
X16750100Y-2199100D02*
X16850100Y-2199100D01*
X16800100Y-2403100D02*
X16800100Y-2503100D01*
X16750100Y-2453100D02*
X16850100Y-2453100D01*
X17054100Y-2149100D02*
X17054100Y-2249100D01*
X17004100Y-2199100D02*
X17104100Y-2199100D01*
X17054100Y-2403100D02*
X17054100Y-2503100D01*
X17004100Y-2453100D02*
X17104100Y-2453100D01*
X17145000Y-1474000D02*
X17145000Y-1574000D01*
X17095000Y-1524000D02*
X17195000Y-1524000D01*
X17308100Y-2149100D02*
X17308100Y-2249100D01*
X17258100Y-2199100D02*
X17358100Y-2199100D01*
X17308100Y-2403100D02*
X17308100Y-2503100D01*
X17258100Y-2453100D02*
X17358100Y-2453100D01*
X17399000Y-1474000D02*
X17399000Y-1574000D01*
X17349000Y-1524000D02*
X17449000Y-1524000D01*
X17562100Y-2149100D02*
X17562100Y-2249100D01*
X17512100Y-2199100D02*
X17612100Y-2199100D01*
X17562100Y-2403100D02*
X17562100Y-2503100D01*
X17512100Y-2453100D02*
X17612100Y-2453100D01*
X17653000Y-1474000D02*
X17653000Y-1574000D01*
X17603000Y-1524000D02*
X17703000Y-1524000D01*
X17816100Y-2149100D02*
X17816100Y-2249100D01*
X17766100Y-2199100D02*
X17866100Y-2199100D01*
X17816100Y-2403100D02*
X17816100Y-2503100D01*
X17766100Y-2453100D02*
X17866100Y-2453100D01*
X17907000Y-1474000D02*
X17907000Y-1574000D01*
X17857000Y-1524000D02*
X17957000Y-1524000D01*
X18161000Y-1474000D02*
X18161000Y-1574000D01*
X18111000Y-1524000D02*
X18211000Y-1524000D01*
X18415000Y-1474000D02*
X18415000Y-1574000D01*
X18365000Y-1524000D02*
X18465000Y-1524000D01*
D15*
X10396034Y-1536033D02*
X10396034Y-1429966D01*
X10289967Y-1429966D01*
X10289967Y-1536033D01*
X10396034Y-1536033D01*
D11*
X10293000Y-1548000D02*
X10393000Y-1548000D01*
X10293000Y-1418000D02*
X10393000Y-1418000D01*
X10393000Y-1548000D02*
G75*
G03*
X10393000Y-1418000I0J65000D01*
G01*
X10293000Y-1418000D02*
G75*
G03*
X10293000Y-1548000I0J-65000D01*
G01*
D15*
X10396034Y-5736033D02*
X10396034Y-5629966D01*
X10289967Y-5629966D01*
X10289967Y-5736033D01*
X10396034Y-5736033D01*
D11*
X10293000Y-5748000D02*
X10393000Y-5748000D01*
X10293000Y-5618000D02*
X10393000Y-5618000D01*
X10393000Y-5748000D02*
G75*
G03*
X10393000Y-5618000I0J65000D01*
G01*
X10293000Y-5618000D02*
G75*
G03*
X10293000Y-5748000I0J-65000D01*
G01*
D15*
X11196033Y-1536033D02*
X11196033Y-1429966D01*
X11089967Y-1429966D01*
X11089967Y-1536033D01*
X11196033Y-1536033D01*
D11*
X11093000Y-1548000D02*
X11193000Y-1548000D01*
X11093000Y-1418000D02*
X11193000Y-1418000D01*
X11193000Y-1548000D02*
G75*
G03*
X11193000Y-1418000I0J65000D01*
G01*
X11093000Y-1418000D02*
G75*
G03*
X11093000Y-1548000I0J-65000D01*
G01*
D15*
X11196033Y-5736033D02*
X11196033Y-5629966D01*
X11089967Y-5629966D01*
X11089967Y-5736033D01*
X11196033Y-5736033D01*
D11*
X11093000Y-5748000D02*
X11193000Y-5748000D01*
X11093000Y-5618000D02*
X11193000Y-5618000D01*
X11193000Y-5748000D02*
G75*
G03*
X11193000Y-5618000I0J65000D01*
G01*
X11093000Y-5618000D02*
G75*
G03*
X11093000Y-5748000I0J-65000D01*
G01*
X10246539Y-6244476D02*
X10246539Y-6044476D01*
X10294158Y-6044476D01*
X10322730Y-6054000D01*
X10341777Y-6073048D01*
X10351301Y-6092095D01*
X10360825Y-6130190D01*
X10360825Y-6158762D01*
X10351301Y-6196857D01*
X10341777Y-6215905D01*
X10322730Y-6234952D01*
X10294158Y-6244476D01*
X10246539Y-6244476D01*
X10446539Y-6244476D02*
X10446539Y-6111143D01*
X10446539Y-6149238D02*
X10456063Y-6130190D01*
X10465587Y-6120667D01*
X10484634Y-6111143D01*
X10503682Y-6111143D01*
X10570349Y-6244476D02*
X10570349Y-6111143D01*
X10570349Y-6044476D02*
X10560825Y-6054000D01*
X10570349Y-6063524D01*
X10579872Y-6054000D01*
X10570349Y-6044476D01*
X10570349Y-6063524D01*
X10694158Y-6244476D02*
X10675110Y-6234952D01*
X10665587Y-6215905D01*
X10665587Y-6044476D01*
X10798920Y-6244476D02*
X10779872Y-6234952D01*
X10770349Y-6215905D01*
X10770349Y-6044476D01*
X11027491Y-6244476D02*
X11027491Y-6044476D01*
X11094158Y-6187333D01*
X11160825Y-6044476D01*
X11160825Y-6244476D01*
X11341777Y-6244476D02*
X11341777Y-6139714D01*
X11332253Y-6120667D01*
X11313206Y-6111143D01*
X11275110Y-6111143D01*
X11256063Y-6120667D01*
X11341777Y-6234952D02*
X11322729Y-6244476D01*
X11275110Y-6244476D01*
X11256063Y-6234952D01*
X11246539Y-6215905D01*
X11246539Y-6196857D01*
X11256063Y-6177809D01*
X11275110Y-6168286D01*
X11322729Y-6168286D01*
X11341777Y-6158762D01*
X11437015Y-6111143D02*
X11437015Y-6311143D01*
X11437015Y-6120667D02*
X11456063Y-6111143D01*
X11494158Y-6111143D01*
X11513206Y-6120667D01*
X11522729Y-6130190D01*
X11532253Y-6149238D01*
X11532253Y-6206381D01*
X11522729Y-6225428D01*
X11513206Y-6234952D01*
X11494158Y-6244476D01*
X11456063Y-6244476D01*
X11437015Y-6234952D01*
X11617968Y-6225428D02*
X11627491Y-6234952D01*
X11617968Y-6244476D01*
X11608444Y-6234952D01*
X11617968Y-6225428D01*
X11617968Y-6244476D01*
X11617968Y-6120667D02*
X11627491Y-6130190D01*
X11617968Y-6139714D01*
X11608444Y-6130190D01*
X11617968Y-6120667D01*
X11617968Y-6139714D01*
D12*
X9968920Y-6564000D02*
X9988920Y-6584000D01*
X9988920Y-6564000D02*
X9968920Y-6584000D01*
D11*
X10284634Y-6464476D02*
X10303682Y-6464476D01*
X10322730Y-6474000D01*
X10332253Y-6483524D01*
X10341777Y-6502571D01*
X10351301Y-6540667D01*
X10351301Y-6588286D01*
X10341777Y-6626381D01*
X10332253Y-6645428D01*
X10322730Y-6654952D01*
X10303682Y-6664476D01*
X10284634Y-6664476D01*
X10265587Y-6654952D01*
X10256063Y-6645428D01*
X10246539Y-6626381D01*
X10237015Y-6588286D01*
X10237015Y-6540667D01*
X10246539Y-6502571D01*
X10256063Y-6483524D01*
X10265587Y-6474000D01*
X10284634Y-6464476D01*
X10437015Y-6645428D02*
X10446539Y-6654952D01*
X10437015Y-6664476D01*
X10427491Y-6654952D01*
X10437015Y-6645428D01*
X10437015Y-6664476D01*
X10522730Y-6483524D02*
X10532253Y-6474000D01*
X10551301Y-6464476D01*
X10598920Y-6464476D01*
X10617968Y-6474000D01*
X10627491Y-6483524D01*
X10637015Y-6502571D01*
X10637015Y-6521619D01*
X10627491Y-6550190D01*
X10513206Y-6664476D01*
X10637015Y-6664476D01*
X10760825Y-6464476D02*
X10779872Y-6464476D01*
X10798920Y-6474000D01*
X10808444Y-6483524D01*
X10817968Y-6502571D01*
X10827491Y-6540667D01*
X10827491Y-6588286D01*
X10817968Y-6626381D01*
X10808444Y-6645428D01*
X10798920Y-6654952D01*
X10779872Y-6664476D01*
X10760825Y-6664476D01*
X10741777Y-6654952D01*
X10732253Y-6645428D01*
X10722730Y-6626381D01*
X10713206Y-6588286D01*
X10713206Y-6540667D01*
X10722730Y-6502571D01*
X10732253Y-6483524D01*
X10741777Y-6474000D01*
X10760825Y-6464476D01*
X10951301Y-6464476D02*
X10970349Y-6464476D01*
X10989396Y-6474000D01*
X10998920Y-6483524D01*
X11008444Y-6502571D01*
X11017968Y-6540667D01*
X11017968Y-6588286D01*
X11008444Y-6626381D01*
X10998920Y-6645428D01*
X10989396Y-6654952D01*
X10970349Y-6664476D01*
X10951301Y-6664476D01*
X10932253Y-6654952D01*
X10922730Y-6645428D01*
X10913206Y-6626381D01*
X10903682Y-6588286D01*
X10903682Y-6540667D01*
X10913206Y-6502571D01*
X10922730Y-6483524D01*
X10932253Y-6474000D01*
X10951301Y-6464476D01*
X11103682Y-6664476D02*
X11103682Y-6531143D01*
X11103682Y-6550190D02*
X11113206Y-6540667D01*
X11132253Y-6531143D01*
X11160825Y-6531143D01*
X11179872Y-6540667D01*
X11189396Y-6559714D01*
X11189396Y-6664476D01*
X11189396Y-6559714D02*
X11198920Y-6540667D01*
X11217968Y-6531143D01*
X11246539Y-6531143D01*
X11265587Y-6540667D01*
X11275110Y-6559714D01*
X11275110Y-6664476D01*
X11370348Y-6664476D02*
X11370348Y-6531143D01*
X11370348Y-6550190D02*
X11379872Y-6540667D01*
X11398920Y-6531143D01*
X11427491Y-6531143D01*
X11446539Y-6540667D01*
X11456063Y-6559714D01*
X11456063Y-6664476D01*
X11456063Y-6559714D02*
X11465587Y-6540667D01*
X11484634Y-6531143D01*
X11513206Y-6531143D01*
X11532253Y-6540667D01*
X11541777Y-6559714D01*
X11541777Y-6664476D01*
X11932253Y-6454952D02*
X11760825Y-6712095D01*
X12189396Y-6464476D02*
X12208444Y-6464476D01*
X12227491Y-6474000D01*
X12237015Y-6483524D01*
X12246539Y-6502571D01*
X12256063Y-6540667D01*
X12256063Y-6588286D01*
X12246539Y-6626381D01*
X12237015Y-6645428D01*
X12227491Y-6654952D01*
X12208444Y-6664476D01*
X12189396Y-6664476D01*
X12170348Y-6654952D01*
X12160825Y-6645428D01*
X12151301Y-6626381D01*
X12141777Y-6588286D01*
X12141777Y-6540667D01*
X12151301Y-6502571D01*
X12160825Y-6483524D01*
X12170348Y-6474000D01*
X12189396Y-6464476D01*
X12341777Y-6645428D02*
X12351301Y-6654952D01*
X12341777Y-6664476D01*
X12332253Y-6654952D01*
X12341777Y-6645428D01*
X12341777Y-6664476D01*
X12475110Y-6464476D02*
X12494158Y-6464476D01*
X12513206Y-6474000D01*
X12522729Y-6483524D01*
X12532253Y-6502571D01*
X12541777Y-6540667D01*
X12541777Y-6588286D01*
X12532253Y-6626381D01*
X12522729Y-6645428D01*
X12513206Y-6654952D01*
X12494158Y-6664476D01*
X12475110Y-6664476D01*
X12456063Y-6654952D01*
X12446539Y-6645428D01*
X12437015Y-6626381D01*
X12427491Y-6588286D01*
X12427491Y-6540667D01*
X12437015Y-6502571D01*
X12446539Y-6483524D01*
X12456063Y-6474000D01*
X12475110Y-6464476D01*
X12665587Y-6464476D02*
X12684634Y-6464476D01*
X12703682Y-6474000D01*
X12713206Y-6483524D01*
X12722729Y-6502571D01*
X12732253Y-6540667D01*
X12732253Y-6588286D01*
X12722729Y-6626381D01*
X12713206Y-6645428D01*
X12703682Y-6654952D01*
X12684634Y-6664476D01*
X12665587Y-6664476D01*
X12646539Y-6654952D01*
X12637015Y-6645428D01*
X12627491Y-6626381D01*
X12617968Y-6588286D01*
X12617968Y-6540667D01*
X12627491Y-6502571D01*
X12637015Y-6483524D01*
X12646539Y-6474000D01*
X12665587Y-6464476D01*
X12798920Y-6464476D02*
X12932253Y-6464476D01*
X12846539Y-6664476D01*
X13017968Y-6664476D02*
X13056063Y-6664476D01*
X13075110Y-6654952D01*
X13084634Y-6645428D01*
X13103682Y-6616857D01*
X13113206Y-6578762D01*
X13113206Y-6502571D01*
X13103682Y-6483524D01*
X13094158Y-6474000D01*
X13075110Y-6464476D01*
X13037015Y-6464476D01*
X13017968Y-6474000D01*
X13008444Y-6483524D01*
X12998920Y-6502571D01*
X12998920Y-6550190D01*
X13008444Y-6569238D01*
X13017968Y-6578762D01*
X13037015Y-6588286D01*
X13075110Y-6588286D01*
X13094158Y-6578762D01*
X13103682Y-6569238D01*
X13113206Y-6550190D01*
X13189396Y-6464476D02*
X13189396Y-6502571D01*
X13265587Y-6464476D02*
X13265587Y-6502571D01*
X13560825Y-6740667D02*
X13551301Y-6731143D01*
X13532253Y-6702571D01*
X13522729Y-6683524D01*
X13513206Y-6654952D01*
X13503682Y-6607333D01*
X13503682Y-6569238D01*
X13513206Y-6521619D01*
X13522729Y-6493048D01*
X13532253Y-6474000D01*
X13551301Y-6445428D01*
X13560825Y-6435905D01*
X13646539Y-6664476D02*
X13684634Y-6664476D01*
X13703682Y-6654952D01*
X13713206Y-6645428D01*
X13732253Y-6616857D01*
X13741777Y-6578762D01*
X13741777Y-6502571D01*
X13732253Y-6483524D01*
X13722729Y-6474000D01*
X13703682Y-6464476D01*
X13665587Y-6464476D01*
X13646539Y-6474000D01*
X13637015Y-6483524D01*
X13627491Y-6502571D01*
X13627491Y-6550190D01*
X13637015Y-6569238D01*
X13646539Y-6578762D01*
X13665587Y-6588286D01*
X13703682Y-6588286D01*
X13722729Y-6578762D01*
X13732253Y-6569238D01*
X13741777Y-6550190D01*
X13808444Y-6464476D02*
X13932253Y-6464476D01*
X13865587Y-6540667D01*
X13894158Y-6540667D01*
X13913206Y-6550190D01*
X13922729Y-6559714D01*
X13932253Y-6578762D01*
X13932253Y-6626381D01*
X13922729Y-6645428D01*
X13913206Y-6654952D01*
X13894158Y-6664476D01*
X13837015Y-6664476D01*
X13817968Y-6654952D01*
X13808444Y-6645428D01*
X14170348Y-6664476D02*
X14170348Y-6464476D01*
X14256063Y-6664476D02*
X14256063Y-6559714D01*
X14246539Y-6540667D01*
X14227491Y-6531143D01*
X14198920Y-6531143D01*
X14179872Y-6540667D01*
X14170348Y-6550190D01*
X14379872Y-6664476D02*
X14360825Y-6654952D01*
X14351301Y-6645428D01*
X14341777Y-6626381D01*
X14341777Y-6569238D01*
X14351301Y-6550190D01*
X14360825Y-6540667D01*
X14379872Y-6531143D01*
X14408444Y-6531143D01*
X14427491Y-6540667D01*
X14437015Y-6550190D01*
X14446539Y-6569238D01*
X14446539Y-6626381D01*
X14437015Y-6645428D01*
X14427491Y-6654952D01*
X14408444Y-6664476D01*
X14379872Y-6664476D01*
X14560825Y-6664476D02*
X14541777Y-6654952D01*
X14532253Y-6635905D01*
X14532253Y-6464476D01*
X14713206Y-6654952D02*
X14694158Y-6664476D01*
X14656063Y-6664476D01*
X14637015Y-6654952D01*
X14627491Y-6635905D01*
X14627491Y-6559714D01*
X14637015Y-6540667D01*
X14656063Y-6531143D01*
X14694158Y-6531143D01*
X14713206Y-6540667D01*
X14722729Y-6559714D01*
X14722729Y-6578762D01*
X14627491Y-6597809D01*
X14798920Y-6654952D02*
X14817968Y-6664476D01*
X14856063Y-6664476D01*
X14875110Y-6654952D01*
X14884634Y-6635905D01*
X14884634Y-6626381D01*
X14875110Y-6607333D01*
X14856063Y-6597809D01*
X14827491Y-6597809D01*
X14808444Y-6588286D01*
X14798920Y-6569238D01*
X14798920Y-6559714D01*
X14808444Y-6540667D01*
X14827491Y-6531143D01*
X14856063Y-6531143D01*
X14875110Y-6540667D01*
X14951301Y-6740667D02*
X14960825Y-6731143D01*
X14979872Y-6702571D01*
X14989396Y-6683524D01*
X14998920Y-6654952D01*
X15008444Y-6607333D01*
X15008444Y-6569238D01*
X14998920Y-6521619D01*
X14989396Y-6493048D01*
X14979872Y-6474000D01*
X14960825Y-6445428D01*
X14951301Y-6435905D01*
D13*
X9988920Y-6838000D02*
G75*
G03*
X9988920Y-6838000I-38100J0D01*
G01*
D11*
X10284634Y-6728476D02*
X10303682Y-6728476D01*
X10322730Y-6738000D01*
X10332253Y-6747524D01*
X10341777Y-6766571D01*
X10351301Y-6804667D01*
X10351301Y-6852286D01*
X10341777Y-6890381D01*
X10332253Y-6909428D01*
X10322730Y-6918952D01*
X10303682Y-6928476D01*
X10284634Y-6928476D01*
X10265587Y-6918952D01*
X10256063Y-6909428D01*
X10246539Y-6890381D01*
X10237015Y-6852286D01*
X10237015Y-6804667D01*
X10246539Y-6766571D01*
X10256063Y-6747524D01*
X10265587Y-6738000D01*
X10284634Y-6728476D01*
X10437015Y-6909428D02*
X10446539Y-6918952D01*
X10437015Y-6928476D01*
X10427491Y-6918952D01*
X10437015Y-6909428D01*
X10437015Y-6928476D01*
X10513206Y-6728476D02*
X10646539Y-6728476D01*
X10560825Y-6928476D01*
X10808444Y-6728476D02*
X10770349Y-6728476D01*
X10751301Y-6738000D01*
X10741777Y-6747524D01*
X10722730Y-6776095D01*
X10713206Y-6814190D01*
X10713206Y-6890381D01*
X10722730Y-6909428D01*
X10732253Y-6918952D01*
X10751301Y-6928476D01*
X10789396Y-6928476D01*
X10808444Y-6918952D01*
X10817968Y-6909428D01*
X10827491Y-6890381D01*
X10827491Y-6842762D01*
X10817968Y-6823714D01*
X10808444Y-6814190D01*
X10789396Y-6804667D01*
X10751301Y-6804667D01*
X10732253Y-6814190D01*
X10722730Y-6823714D01*
X10713206Y-6842762D01*
X10903682Y-6747524D02*
X10913206Y-6738000D01*
X10932253Y-6728476D01*
X10979872Y-6728476D01*
X10998920Y-6738000D01*
X11008444Y-6747524D01*
X11017968Y-6766571D01*
X11017968Y-6785619D01*
X11008444Y-6814190D01*
X10894158Y-6928476D01*
X11017968Y-6928476D01*
X11103682Y-6928476D02*
X11103682Y-6795143D01*
X11103682Y-6814190D02*
X11113206Y-6804667D01*
X11132253Y-6795143D01*
X11160825Y-6795143D01*
X11179872Y-6804667D01*
X11189396Y-6823714D01*
X11189396Y-6928476D01*
X11189396Y-6823714D02*
X11198920Y-6804667D01*
X11217968Y-6795143D01*
X11246539Y-6795143D01*
X11265587Y-6804667D01*
X11275110Y-6823714D01*
X11275110Y-6928476D01*
X11370348Y-6928476D02*
X11370348Y-6795143D01*
X11370348Y-6814190D02*
X11379872Y-6804667D01*
X11398920Y-6795143D01*
X11427491Y-6795143D01*
X11446539Y-6804667D01*
X11456063Y-6823714D01*
X11456063Y-6928476D01*
X11456063Y-6823714D02*
X11465587Y-6804667D01*
X11484634Y-6795143D01*
X11513206Y-6795143D01*
X11532253Y-6804667D01*
X11541777Y-6823714D01*
X11541777Y-6928476D01*
X11932253Y-6718952D02*
X11760825Y-6976095D01*
X12189396Y-6728476D02*
X12208444Y-6728476D01*
X12227491Y-6738000D01*
X12237015Y-6747524D01*
X12246539Y-6766571D01*
X12256063Y-6804667D01*
X12256063Y-6852286D01*
X12246539Y-6890381D01*
X12237015Y-6909428D01*
X12227491Y-6918952D01*
X12208444Y-6928476D01*
X12189396Y-6928476D01*
X12170348Y-6918952D01*
X12160825Y-6909428D01*
X12151301Y-6890381D01*
X12141777Y-6852286D01*
X12141777Y-6804667D01*
X12151301Y-6766571D01*
X12160825Y-6747524D01*
X12170348Y-6738000D01*
X12189396Y-6728476D01*
X12341777Y-6909428D02*
X12351301Y-6918952D01*
X12341777Y-6928476D01*
X12332253Y-6918952D01*
X12341777Y-6909428D01*
X12341777Y-6928476D01*
X12475110Y-6728476D02*
X12494158Y-6728476D01*
X12513206Y-6738000D01*
X12522729Y-6747524D01*
X12532253Y-6766571D01*
X12541777Y-6804667D01*
X12541777Y-6852286D01*
X12532253Y-6890381D01*
X12522729Y-6909428D01*
X12513206Y-6918952D01*
X12494158Y-6928476D01*
X12475110Y-6928476D01*
X12456063Y-6918952D01*
X12446539Y-6909428D01*
X12437015Y-6890381D01*
X12427491Y-6852286D01*
X12427491Y-6804667D01*
X12437015Y-6766571D01*
X12446539Y-6747524D01*
X12456063Y-6738000D01*
X12475110Y-6728476D01*
X12608444Y-6728476D02*
X12732253Y-6728476D01*
X12665587Y-6804667D01*
X12694158Y-6804667D01*
X12713206Y-6814190D01*
X12722729Y-6823714D01*
X12732253Y-6842762D01*
X12732253Y-6890381D01*
X12722729Y-6909428D01*
X12713206Y-6918952D01*
X12694158Y-6928476D01*
X12637015Y-6928476D01*
X12617968Y-6918952D01*
X12608444Y-6909428D01*
X12856063Y-6728476D02*
X12875110Y-6728476D01*
X12894158Y-6738000D01*
X12903682Y-6747524D01*
X12913206Y-6766571D01*
X12922729Y-6804667D01*
X12922729Y-6852286D01*
X12913206Y-6890381D01*
X12903682Y-6909428D01*
X12894158Y-6918952D01*
X12875110Y-6928476D01*
X12856063Y-6928476D01*
X12837015Y-6918952D01*
X12827491Y-6909428D01*
X12817968Y-6890381D01*
X12808444Y-6852286D01*
X12808444Y-6804667D01*
X12817968Y-6766571D01*
X12827491Y-6747524D01*
X12837015Y-6738000D01*
X12856063Y-6728476D01*
X13046539Y-6728476D02*
X13065587Y-6728476D01*
X13084634Y-6738000D01*
X13094158Y-6747524D01*
X13103682Y-6766571D01*
X13113206Y-6804667D01*
X13113206Y-6852286D01*
X13103682Y-6890381D01*
X13094158Y-6909428D01*
X13084634Y-6918952D01*
X13065587Y-6928476D01*
X13046539Y-6928476D01*
X13027491Y-6918952D01*
X13017968Y-6909428D01*
X13008444Y-6890381D01*
X12998920Y-6852286D01*
X12998920Y-6804667D01*
X13008444Y-6766571D01*
X13017968Y-6747524D01*
X13027491Y-6738000D01*
X13046539Y-6728476D01*
X13189396Y-6728476D02*
X13189396Y-6766571D01*
X13265587Y-6728476D02*
X13265587Y-6766571D01*
X13560825Y-7004667D02*
X13551301Y-6995143D01*
X13532253Y-6966571D01*
X13522729Y-6947524D01*
X13513206Y-6918952D01*
X13503682Y-6871333D01*
X13503682Y-6833238D01*
X13513206Y-6785619D01*
X13522729Y-6757048D01*
X13532253Y-6738000D01*
X13551301Y-6709428D01*
X13560825Y-6699905D01*
X13646539Y-6928476D02*
X13684634Y-6928476D01*
X13703682Y-6918952D01*
X13713206Y-6909428D01*
X13732253Y-6880857D01*
X13741777Y-6842762D01*
X13741777Y-6766571D01*
X13732253Y-6747524D01*
X13722729Y-6738000D01*
X13703682Y-6728476D01*
X13665587Y-6728476D01*
X13646539Y-6738000D01*
X13637015Y-6747524D01*
X13627491Y-6766571D01*
X13627491Y-6814190D01*
X13637015Y-6833238D01*
X13646539Y-6842762D01*
X13665587Y-6852286D01*
X13703682Y-6852286D01*
X13722729Y-6842762D01*
X13732253Y-6833238D01*
X13741777Y-6814190D01*
X13979872Y-6928476D02*
X13979872Y-6728476D01*
X14065587Y-6928476D02*
X14065587Y-6823714D01*
X14056063Y-6804667D01*
X14037015Y-6795143D01*
X14008444Y-6795143D01*
X13989396Y-6804667D01*
X13979872Y-6814190D01*
X14189396Y-6928476D02*
X14170348Y-6918952D01*
X14160825Y-6909428D01*
X14151301Y-6890381D01*
X14151301Y-6833238D01*
X14160825Y-6814190D01*
X14170348Y-6804667D01*
X14189396Y-6795143D01*
X14217968Y-6795143D01*
X14237015Y-6804667D01*
X14246539Y-6814190D01*
X14256063Y-6833238D01*
X14256063Y-6890381D01*
X14246539Y-6909428D01*
X14237015Y-6918952D01*
X14217968Y-6928476D01*
X14189396Y-6928476D01*
X14370348Y-6928476D02*
X14351301Y-6918952D01*
X14341777Y-6899905D01*
X14341777Y-6728476D01*
X14522729Y-6918952D02*
X14503682Y-6928476D01*
X14465587Y-6928476D01*
X14446539Y-6918952D01*
X14437015Y-6899905D01*
X14437015Y-6823714D01*
X14446539Y-6804667D01*
X14465587Y-6795143D01*
X14503682Y-6795143D01*
X14522729Y-6804667D01*
X14532253Y-6823714D01*
X14532253Y-6842762D01*
X14437015Y-6861809D01*
X14608444Y-6918952D02*
X14627491Y-6928476D01*
X14665587Y-6928476D01*
X14684634Y-6918952D01*
X14694158Y-6899905D01*
X14694158Y-6890381D01*
X14684634Y-6871333D01*
X14665587Y-6861809D01*
X14637015Y-6861809D01*
X14617968Y-6852286D01*
X14608444Y-6833238D01*
X14608444Y-6823714D01*
X14617968Y-6804667D01*
X14637015Y-6795143D01*
X14665587Y-6795143D01*
X14684634Y-6804667D01*
X14760825Y-7004667D02*
X14770348Y-6995143D01*
X14789396Y-6966571D01*
X14798920Y-6947524D01*
X14808444Y-6918952D01*
X14817968Y-6871333D01*
X14817968Y-6833238D01*
X14808444Y-6785619D01*
X14798920Y-6757048D01*
X14789396Y-6738000D01*
X14770348Y-6709428D01*
X14760825Y-6699905D01*
D14*
X9938920Y-7052000D02*
X9938920Y-7152000D01*
X9888920Y-7102000D02*
X9988920Y-7102000D01*
D11*
X10351301Y-7192476D02*
X10237015Y-7192476D01*
X10294158Y-7192476D02*
X10294158Y-6992476D01*
X10275110Y-7021048D01*
X10256063Y-7040095D01*
X10237015Y-7049619D01*
X10437015Y-7173428D02*
X10446539Y-7182952D01*
X10437015Y-7192476D01*
X10427491Y-7182952D01*
X10437015Y-7173428D01*
X10437015Y-7192476D01*
X10570349Y-6992476D02*
X10589396Y-6992476D01*
X10608444Y-7002000D01*
X10617968Y-7011524D01*
X10627491Y-7030571D01*
X10637015Y-7068667D01*
X10637015Y-7116286D01*
X10627491Y-7154381D01*
X10617968Y-7173428D01*
X10608444Y-7182952D01*
X10589396Y-7192476D01*
X10570349Y-7192476D01*
X10551301Y-7182952D01*
X10541777Y-7173428D01*
X10532253Y-7154381D01*
X10522730Y-7116286D01*
X10522730Y-7068667D01*
X10532253Y-7030571D01*
X10541777Y-7011524D01*
X10551301Y-7002000D01*
X10570349Y-6992476D01*
X10760825Y-6992476D02*
X10779872Y-6992476D01*
X10798920Y-7002000D01*
X10808444Y-7011524D01*
X10817968Y-7030571D01*
X10827491Y-7068667D01*
X10827491Y-7116286D01*
X10817968Y-7154381D01*
X10808444Y-7173428D01*
X10798920Y-7182952D01*
X10779872Y-7192476D01*
X10760825Y-7192476D01*
X10741777Y-7182952D01*
X10732253Y-7173428D01*
X10722730Y-7154381D01*
X10713206Y-7116286D01*
X10713206Y-7068667D01*
X10722730Y-7030571D01*
X10732253Y-7011524D01*
X10741777Y-7002000D01*
X10760825Y-6992476D01*
X10951301Y-6992476D02*
X10970349Y-6992476D01*
X10989396Y-7002000D01*
X10998920Y-7011524D01*
X11008444Y-7030571D01*
X11017968Y-7068667D01*
X11017968Y-7116286D01*
X11008444Y-7154381D01*
X10998920Y-7173428D01*
X10989396Y-7182952D01*
X10970349Y-7192476D01*
X10951301Y-7192476D01*
X10932253Y-7182952D01*
X10922730Y-7173428D01*
X10913206Y-7154381D01*
X10903682Y-7116286D01*
X10903682Y-7068667D01*
X10913206Y-7030571D01*
X10922730Y-7011524D01*
X10932253Y-7002000D01*
X10951301Y-6992476D01*
X11103682Y-7192476D02*
X11103682Y-7059143D01*
X11103682Y-7078190D02*
X11113206Y-7068667D01*
X11132253Y-7059143D01*
X11160825Y-7059143D01*
X11179872Y-7068667D01*
X11189396Y-7087714D01*
X11189396Y-7192476D01*
X11189396Y-7087714D02*
X11198920Y-7068667D01*
X11217968Y-7059143D01*
X11246539Y-7059143D01*
X11265587Y-7068667D01*
X11275110Y-7087714D01*
X11275110Y-7192476D01*
X11370348Y-7192476D02*
X11370348Y-7059143D01*
X11370348Y-7078190D02*
X11379872Y-7068667D01*
X11398920Y-7059143D01*
X11427491Y-7059143D01*
X11446539Y-7068667D01*
X11456063Y-7087714D01*
X11456063Y-7192476D01*
X11456063Y-7087714D02*
X11465587Y-7068667D01*
X11484634Y-7059143D01*
X11513206Y-7059143D01*
X11532253Y-7068667D01*
X11541777Y-7087714D01*
X11541777Y-7192476D01*
X11932253Y-6982952D02*
X11760825Y-7240095D01*
X12189396Y-6992476D02*
X12208444Y-6992476D01*
X12227491Y-7002000D01*
X12237015Y-7011524D01*
X12246539Y-7030571D01*
X12256063Y-7068667D01*
X12256063Y-7116286D01*
X12246539Y-7154381D01*
X12237015Y-7173428D01*
X12227491Y-7182952D01*
X12208444Y-7192476D01*
X12189396Y-7192476D01*
X12170348Y-7182952D01*
X12160825Y-7173428D01*
X12151301Y-7154381D01*
X12141777Y-7116286D01*
X12141777Y-7068667D01*
X12151301Y-7030571D01*
X12160825Y-7011524D01*
X12170348Y-7002000D01*
X12189396Y-6992476D01*
X12341777Y-7173428D02*
X12351301Y-7182952D01*
X12341777Y-7192476D01*
X12332253Y-7182952D01*
X12341777Y-7173428D01*
X12341777Y-7192476D01*
X12475110Y-6992476D02*
X12494158Y-6992476D01*
X12513206Y-7002000D01*
X12522729Y-7011524D01*
X12532253Y-7030571D01*
X12541777Y-7068667D01*
X12541777Y-7116286D01*
X12532253Y-7154381D01*
X12522729Y-7173428D01*
X12513206Y-7182952D01*
X12494158Y-7192476D01*
X12475110Y-7192476D01*
X12456063Y-7182952D01*
X12446539Y-7173428D01*
X12437015Y-7154381D01*
X12427491Y-7116286D01*
X12427491Y-7068667D01*
X12437015Y-7030571D01*
X12446539Y-7011524D01*
X12456063Y-7002000D01*
X12475110Y-6992476D01*
X12608444Y-6992476D02*
X12732253Y-6992476D01*
X12665587Y-7068667D01*
X12694158Y-7068667D01*
X12713206Y-7078190D01*
X12722729Y-7087714D01*
X12732253Y-7106762D01*
X12732253Y-7154381D01*
X12722729Y-7173428D01*
X12713206Y-7182952D01*
X12694158Y-7192476D01*
X12637015Y-7192476D01*
X12617968Y-7182952D01*
X12608444Y-7173428D01*
X12827491Y-7192476D02*
X12865587Y-7192476D01*
X12884634Y-7182952D01*
X12894158Y-7173428D01*
X12913206Y-7144857D01*
X12922729Y-7106762D01*
X12922729Y-7030571D01*
X12913206Y-7011524D01*
X12903682Y-7002000D01*
X12884634Y-6992476D01*
X12846539Y-6992476D01*
X12827491Y-7002000D01*
X12817968Y-7011524D01*
X12808444Y-7030571D01*
X12808444Y-7078190D01*
X12817968Y-7097238D01*
X12827491Y-7106762D01*
X12846539Y-7116286D01*
X12884634Y-7116286D01*
X12903682Y-7106762D01*
X12913206Y-7097238D01*
X12922729Y-7078190D01*
X13094158Y-7059143D02*
X13094158Y-7192476D01*
X13046539Y-6982952D02*
X12998920Y-7125809D01*
X13122729Y-7125809D01*
X13189396Y-6992476D02*
X13189396Y-7030571D01*
X13265587Y-6992476D02*
X13265587Y-7030571D01*
X13560825Y-7268667D02*
X13551301Y-7259143D01*
X13532253Y-7230571D01*
X13522729Y-7211524D01*
X13513206Y-7182952D01*
X13503682Y-7135333D01*
X13503682Y-7097238D01*
X13513206Y-7049619D01*
X13522729Y-7021048D01*
X13532253Y-7002000D01*
X13551301Y-6973428D01*
X13560825Y-6963905D01*
X13722729Y-6992476D02*
X13684634Y-6992476D01*
X13665587Y-7002000D01*
X13656063Y-7011524D01*
X13637015Y-7040095D01*
X13627491Y-7078190D01*
X13627491Y-7154381D01*
X13637015Y-7173428D01*
X13646539Y-7182952D01*
X13665587Y-7192476D01*
X13703682Y-7192476D01*
X13722729Y-7182952D01*
X13732253Y-7173428D01*
X13741777Y-7154381D01*
X13741777Y-7106762D01*
X13732253Y-7087714D01*
X13722729Y-7078190D01*
X13703682Y-7068667D01*
X13665587Y-7068667D01*
X13646539Y-7078190D01*
X13637015Y-7087714D01*
X13627491Y-7106762D01*
X13856063Y-7078190D02*
X13837015Y-7068667D01*
X13827491Y-7059143D01*
X13817968Y-7040095D01*
X13817968Y-7030571D01*
X13827491Y-7011524D01*
X13837015Y-7002000D01*
X13856063Y-6992476D01*
X13894158Y-6992476D01*
X13913206Y-7002000D01*
X13922729Y-7011524D01*
X13932253Y-7030571D01*
X13932253Y-7040095D01*
X13922729Y-7059143D01*
X13913206Y-7068667D01*
X13894158Y-7078190D01*
X13856063Y-7078190D01*
X13837015Y-7087714D01*
X13827491Y-7097238D01*
X13817968Y-7116286D01*
X13817968Y-7154381D01*
X13827491Y-7173428D01*
X13837015Y-7182952D01*
X13856063Y-7192476D01*
X13894158Y-7192476D01*
X13913206Y-7182952D01*
X13922729Y-7173428D01*
X13932253Y-7154381D01*
X13932253Y-7116286D01*
X13922729Y-7097238D01*
X13913206Y-7087714D01*
X13894158Y-7078190D01*
X14170348Y-7192476D02*
X14170348Y-6992476D01*
X14256063Y-7192476D02*
X14256063Y-7087714D01*
X14246539Y-7068667D01*
X14227491Y-7059143D01*
X14198920Y-7059143D01*
X14179872Y-7068667D01*
X14170348Y-7078190D01*
X14379872Y-7192476D02*
X14360825Y-7182952D01*
X14351301Y-7173428D01*
X14341777Y-7154381D01*
X14341777Y-7097238D01*
X14351301Y-7078190D01*
X14360825Y-7068667D01*
X14379872Y-7059143D01*
X14408444Y-7059143D01*
X14427491Y-7068667D01*
X14437015Y-7078190D01*
X14446539Y-7097238D01*
X14446539Y-7154381D01*
X14437015Y-7173428D01*
X14427491Y-7182952D01*
X14408444Y-7192476D01*
X14379872Y-7192476D01*
X14560825Y-7192476D02*
X14541777Y-7182952D01*
X14532253Y-7163905D01*
X14532253Y-6992476D01*
X14713206Y-7182952D02*
X14694158Y-7192476D01*
X14656063Y-7192476D01*
X14637015Y-7182952D01*
X14627491Y-7163905D01*
X14627491Y-7087714D01*
X14637015Y-7068667D01*
X14656063Y-7059143D01*
X14694158Y-7059143D01*
X14713206Y-7068667D01*
X14722729Y-7087714D01*
X14722729Y-7106762D01*
X14627491Y-7125809D01*
X14798920Y-7182952D02*
X14817968Y-7192476D01*
X14856063Y-7192476D01*
X14875110Y-7182952D01*
X14884634Y-7163905D01*
X14884634Y-7154381D01*
X14875110Y-7135333D01*
X14856063Y-7125809D01*
X14827491Y-7125809D01*
X14808444Y-7116286D01*
X14798920Y-7097238D01*
X14798920Y-7087714D01*
X14808444Y-7068667D01*
X14827491Y-7059143D01*
X14856063Y-7059143D01*
X14875110Y-7068667D01*
X14951301Y-7268667D02*
X14960825Y-7259143D01*
X14979872Y-7230571D01*
X14989396Y-7211524D01*
X14998920Y-7182952D01*
X15008444Y-7135333D01*
X15008444Y-7097238D01*
X14998920Y-7049619D01*
X14989396Y-7021048D01*
X14979872Y-7002000D01*
X14960825Y-6973428D01*
X14951301Y-6963905D01*
D15*
X9966954Y-7419033D02*
X9966954Y-7312966D01*
X9860887Y-7312966D01*
X9860887Y-7419033D01*
X9966954Y-7419033D01*
D11*
X10351301Y-7456476D02*
X10237015Y-7456476D01*
X10294158Y-7456476D02*
X10294158Y-7256476D01*
X10275110Y-7285048D01*
X10256063Y-7304095D01*
X10237015Y-7313619D01*
X10437015Y-7437428D02*
X10446539Y-7446952D01*
X10437015Y-7456476D01*
X10427491Y-7446952D01*
X10437015Y-7437428D01*
X10437015Y-7456476D01*
X10627491Y-7256476D02*
X10532253Y-7256476D01*
X10522730Y-7351714D01*
X10532253Y-7342190D01*
X10551301Y-7332667D01*
X10598920Y-7332667D01*
X10617968Y-7342190D01*
X10627491Y-7351714D01*
X10637015Y-7370762D01*
X10637015Y-7418381D01*
X10627491Y-7437428D01*
X10617968Y-7446952D01*
X10598920Y-7456476D01*
X10551301Y-7456476D01*
X10532253Y-7446952D01*
X10522730Y-7437428D01*
X10760825Y-7256476D02*
X10779872Y-7256476D01*
X10798920Y-7266000D01*
X10808444Y-7275524D01*
X10817968Y-7294571D01*
X10827491Y-7332667D01*
X10827491Y-7380286D01*
X10817968Y-7418381D01*
X10808444Y-7437428D01*
X10798920Y-7446952D01*
X10779872Y-7456476D01*
X10760825Y-7456476D01*
X10741777Y-7446952D01*
X10732253Y-7437428D01*
X10722730Y-7418381D01*
X10713206Y-7380286D01*
X10713206Y-7332667D01*
X10722730Y-7294571D01*
X10732253Y-7275524D01*
X10741777Y-7266000D01*
X10760825Y-7256476D01*
X10951301Y-7256476D02*
X10970349Y-7256476D01*
X10989396Y-7266000D01*
X10998920Y-7275524D01*
X11008444Y-7294571D01*
X11017968Y-7332667D01*
X11017968Y-7380286D01*
X11008444Y-7418381D01*
X10998920Y-7437428D01*
X10989396Y-7446952D01*
X10970349Y-7456476D01*
X10951301Y-7456476D01*
X10932253Y-7446952D01*
X10922730Y-7437428D01*
X10913206Y-7418381D01*
X10903682Y-7380286D01*
X10903682Y-7332667D01*
X10913206Y-7294571D01*
X10922730Y-7275524D01*
X10932253Y-7266000D01*
X10951301Y-7256476D01*
X11103682Y-7456476D02*
X11103682Y-7323143D01*
X11103682Y-7342190D02*
X11113206Y-7332667D01*
X11132253Y-7323143D01*
X11160825Y-7323143D01*
X11179872Y-7332667D01*
X11189396Y-7351714D01*
X11189396Y-7456476D01*
X11189396Y-7351714D02*
X11198920Y-7332667D01*
X11217968Y-7323143D01*
X11246539Y-7323143D01*
X11265587Y-7332667D01*
X11275110Y-7351714D01*
X11275110Y-7456476D01*
X11370348Y-7456476D02*
X11370348Y-7323143D01*
X11370348Y-7342190D02*
X11379872Y-7332667D01*
X11398920Y-7323143D01*
X11427491Y-7323143D01*
X11446539Y-7332667D01*
X11456063Y-7351714D01*
X11456063Y-7456476D01*
X11456063Y-7351714D02*
X11465587Y-7332667D01*
X11484634Y-7323143D01*
X11513206Y-7323143D01*
X11532253Y-7332667D01*
X11541777Y-7351714D01*
X11541777Y-7456476D01*
X11932253Y-7246952D02*
X11760825Y-7504095D01*
X12189396Y-7256476D02*
X12208444Y-7256476D01*
X12227491Y-7266000D01*
X12237015Y-7275524D01*
X12246539Y-7294571D01*
X12256063Y-7332667D01*
X12256063Y-7380286D01*
X12246539Y-7418381D01*
X12237015Y-7437428D01*
X12227491Y-7446952D01*
X12208444Y-7456476D01*
X12189396Y-7456476D01*
X12170348Y-7446952D01*
X12160825Y-7437428D01*
X12151301Y-7418381D01*
X12141777Y-7380286D01*
X12141777Y-7332667D01*
X12151301Y-7294571D01*
X12160825Y-7275524D01*
X12170348Y-7266000D01*
X12189396Y-7256476D01*
X12341777Y-7437428D02*
X12351301Y-7446952D01*
X12341777Y-7456476D01*
X12332253Y-7446952D01*
X12341777Y-7437428D01*
X12341777Y-7456476D01*
X12475110Y-7256476D02*
X12494158Y-7256476D01*
X12513206Y-7266000D01*
X12522729Y-7275524D01*
X12532253Y-7294571D01*
X12541777Y-7332667D01*
X12541777Y-7380286D01*
X12532253Y-7418381D01*
X12522729Y-7437428D01*
X12513206Y-7446952D01*
X12494158Y-7456476D01*
X12475110Y-7456476D01*
X12456063Y-7446952D01*
X12446539Y-7437428D01*
X12437015Y-7418381D01*
X12427491Y-7380286D01*
X12427491Y-7332667D01*
X12437015Y-7294571D01*
X12446539Y-7275524D01*
X12456063Y-7266000D01*
X12475110Y-7256476D01*
X12722729Y-7256476D02*
X12627491Y-7256476D01*
X12617968Y-7351714D01*
X12627491Y-7342190D01*
X12646539Y-7332667D01*
X12694158Y-7332667D01*
X12713206Y-7342190D01*
X12722729Y-7351714D01*
X12732253Y-7370762D01*
X12732253Y-7418381D01*
X12722729Y-7437428D01*
X12713206Y-7446952D01*
X12694158Y-7456476D01*
X12646539Y-7456476D01*
X12627491Y-7446952D01*
X12617968Y-7437428D01*
X12827491Y-7456476D02*
X12865587Y-7456476D01*
X12884634Y-7446952D01*
X12894158Y-7437428D01*
X12913206Y-7408857D01*
X12922729Y-7370762D01*
X12922729Y-7294571D01*
X12913206Y-7275524D01*
X12903682Y-7266000D01*
X12884634Y-7256476D01*
X12846539Y-7256476D01*
X12827491Y-7266000D01*
X12817968Y-7275524D01*
X12808444Y-7294571D01*
X12808444Y-7342190D01*
X12817968Y-7361238D01*
X12827491Y-7370762D01*
X12846539Y-7380286D01*
X12884634Y-7380286D01*
X12903682Y-7370762D01*
X12913206Y-7361238D01*
X12922729Y-7342190D01*
X13113206Y-7456476D02*
X12998920Y-7456476D01*
X13056063Y-7456476D02*
X13056063Y-7256476D01*
X13037015Y-7285048D01*
X13017968Y-7304095D01*
X12998920Y-7313619D01*
X13189396Y-7256476D02*
X13189396Y-7294571D01*
X13265587Y-7256476D02*
X13265587Y-7294571D01*
X13560825Y-7532667D02*
X13551301Y-7523143D01*
X13532253Y-7494571D01*
X13522729Y-7475524D01*
X13513206Y-7446952D01*
X13503682Y-7399333D01*
X13503682Y-7361238D01*
X13513206Y-7313619D01*
X13522729Y-7285048D01*
X13532253Y-7266000D01*
X13551301Y-7237428D01*
X13560825Y-7227905D01*
X13675110Y-7256476D02*
X13694158Y-7256476D01*
X13713206Y-7266000D01*
X13722729Y-7275524D01*
X13732253Y-7294571D01*
X13741777Y-7332667D01*
X13741777Y-7380286D01*
X13732253Y-7418381D01*
X13722729Y-7437428D01*
X13713206Y-7446952D01*
X13694158Y-7456476D01*
X13675110Y-7456476D01*
X13656063Y-7446952D01*
X13646539Y-7437428D01*
X13637015Y-7418381D01*
X13627491Y-7380286D01*
X13627491Y-7332667D01*
X13637015Y-7294571D01*
X13646539Y-7275524D01*
X13656063Y-7266000D01*
X13675110Y-7256476D01*
X13979872Y-7456476D02*
X13979872Y-7256476D01*
X14065587Y-7456476D02*
X14065587Y-7351714D01*
X14056063Y-7332667D01*
X14037015Y-7323143D01*
X14008444Y-7323143D01*
X13989396Y-7332667D01*
X13979872Y-7342190D01*
X14189396Y-7456476D02*
X14170348Y-7446952D01*
X14160825Y-7437428D01*
X14151301Y-7418381D01*
X14151301Y-7361238D01*
X14160825Y-7342190D01*
X14170348Y-7332667D01*
X14189396Y-7323143D01*
X14217968Y-7323143D01*
X14237015Y-7332667D01*
X14246539Y-7342190D01*
X14256063Y-7361238D01*
X14256063Y-7418381D01*
X14246539Y-7437428D01*
X14237015Y-7446952D01*
X14217968Y-7456476D01*
X14189396Y-7456476D01*
X14370348Y-7456476D02*
X14351301Y-7446952D01*
X14341777Y-7427905D01*
X14341777Y-7256476D01*
X14522729Y-7446952D02*
X14503682Y-7456476D01*
X14465587Y-7456476D01*
X14446539Y-7446952D01*
X14437015Y-7427905D01*
X14437015Y-7351714D01*
X14446539Y-7332667D01*
X14465587Y-7323143D01*
X14503682Y-7323143D01*
X14522729Y-7332667D01*
X14532253Y-7351714D01*
X14532253Y-7370762D01*
X14437015Y-7389809D01*
X14608444Y-7446952D02*
X14627491Y-7456476D01*
X14665587Y-7456476D01*
X14684634Y-7446952D01*
X14694158Y-7427905D01*
X14694158Y-7418381D01*
X14684634Y-7399333D01*
X14665587Y-7389809D01*
X14637015Y-7389809D01*
X14617968Y-7380286D01*
X14608444Y-7361238D01*
X14608444Y-7351714D01*
X14617968Y-7332667D01*
X14637015Y-7323143D01*
X14665587Y-7323143D01*
X14684634Y-7332667D01*
X14932253Y-7380286D02*
X15084634Y-7380286D01*
X15008444Y-7456476D02*
X15008444Y-7304095D01*
X15417968Y-7323143D02*
X15417968Y-7456476D01*
X15370348Y-7246952D02*
X15322729Y-7389809D01*
X15446539Y-7389809D01*
X15665587Y-7446952D02*
X15684634Y-7456476D01*
X15722729Y-7456476D01*
X15741777Y-7446952D01*
X15751301Y-7427905D01*
X15751301Y-7418381D01*
X15741777Y-7399333D01*
X15722729Y-7389809D01*
X15694158Y-7389809D01*
X15675110Y-7380286D01*
X15665587Y-7361238D01*
X15665587Y-7351714D01*
X15675110Y-7332667D01*
X15694158Y-7323143D01*
X15722729Y-7323143D01*
X15741777Y-7332667D01*
X15865587Y-7456476D02*
X15846539Y-7446952D01*
X15837015Y-7427905D01*
X15837015Y-7256476D01*
X15970348Y-7456476D02*
X15951301Y-7446952D01*
X15941777Y-7437428D01*
X15932253Y-7418381D01*
X15932253Y-7361238D01*
X15941777Y-7342190D01*
X15951301Y-7332667D01*
X15970348Y-7323143D01*
X15998920Y-7323143D01*
X16017968Y-7332667D01*
X16027491Y-7342190D01*
X16037015Y-7361238D01*
X16037015Y-7418381D01*
X16027491Y-7437428D01*
X16017968Y-7446952D01*
X15998920Y-7456476D01*
X15970348Y-7456476D01*
X16094158Y-7323143D02*
X16170348Y-7323143D01*
X16122729Y-7256476D02*
X16122729Y-7427905D01*
X16132253Y-7446952D01*
X16151301Y-7456476D01*
X16170348Y-7456476D01*
X16227491Y-7446952D02*
X16246539Y-7456476D01*
X16284634Y-7456476D01*
X16303682Y-7446952D01*
X16313206Y-7427905D01*
X16313206Y-7418381D01*
X16303682Y-7399333D01*
X16284634Y-7389809D01*
X16256063Y-7389809D01*
X16237015Y-7380286D01*
X16227491Y-7361238D01*
X16227491Y-7351714D01*
X16237015Y-7332667D01*
X16256063Y-7323143D01*
X16284634Y-7323143D01*
X16303682Y-7332667D01*
X16379872Y-7532667D02*
X16389396Y-7523143D01*
X16408444Y-7494571D01*
X16417968Y-7475524D01*
X16427491Y-7446952D01*
X16437015Y-7399333D01*
X16437015Y-7361238D01*
X16427491Y-7313619D01*
X16417968Y-7285048D01*
X16408444Y-7266000D01*
X16389396Y-7237428D01*
X16379872Y-7227905D01*
M02*
