%TF.GenerationSoftware,KiCad,Pcbnew,(6.0.4-0)*%
%TF.CreationDate,2022-10-27T23:32:19+02:00*%
%TF.ProjectId,NE2Pi,4e453250-692e-46b6-9963-61645f706362,rev?*%
%TF.SameCoordinates,Original*%
%TF.FileFunction,Soldermask,Bot*%
%TF.FilePolarity,Negative*%
%FSLAX46Y46*%
G04 Gerber Fmt 4.6, Leading zero omitted, Abs format (unit mm)*
G04 Created by KiCad (PCBNEW (6.0.4-0)) date 2022-10-27 23:32:19*
%MOMM*%
%LPD*%
G01*
G04 APERTURE LIST*
%ADD10C,1.152000*%
%ADD11R,1.700000X1.700000*%
%ADD12O,1.700000X1.700000*%
%ADD13C,1.524000*%
%ADD14O,3.500000X2.500000*%
G04 APERTURE END LIST*
D10*
%TO.C,H2*%
X101300000Y-17100000D03*
%TD*%
%TO.C,H1*%
X186500000Y-57800000D03*
%TD*%
D11*
%TO.C,J5*%
X149352000Y-15240000D03*
D12*
X151892000Y-15240000D03*
X154432000Y-15240000D03*
X156972000Y-15240000D03*
X159512000Y-15240000D03*
X162052000Y-15240000D03*
X164592000Y-15240000D03*
X167132000Y-15240000D03*
%TD*%
D11*
%TO.C,J4*%
X149352000Y-49276000D03*
D12*
X151892000Y-49276000D03*
X154432000Y-49276000D03*
X156972000Y-49276000D03*
X159512000Y-49276000D03*
X162052000Y-49276000D03*
X164592000Y-49276000D03*
X167132000Y-49276000D03*
%TD*%
D11*
%TO.C,TP1*%
X145201000Y-52451000D03*
D12*
X142661000Y-52451000D03*
%TD*%
D11*
%TO.C,J3*%
X184150000Y-15240000D03*
D12*
X181610000Y-15240000D03*
X179070000Y-15240000D03*
X176530000Y-15240000D03*
X173990000Y-15240000D03*
X171450000Y-15240000D03*
%TD*%
D11*
%TO.C,J1*%
X178161000Y-24531000D03*
D12*
X178161000Y-21991000D03*
X175621000Y-24531000D03*
X175621000Y-21991000D03*
X173081000Y-24531000D03*
X173081000Y-21991000D03*
X170541000Y-24531000D03*
X170541000Y-21991000D03*
X168001000Y-24531000D03*
X168001000Y-21991000D03*
X165461000Y-24531000D03*
X165461000Y-21991000D03*
X162921000Y-24531000D03*
X162921000Y-21991000D03*
X160381000Y-24531000D03*
X160381000Y-21991000D03*
X157841000Y-24531000D03*
X157841000Y-21991000D03*
X155301000Y-24531000D03*
X155301000Y-21991000D03*
X152761000Y-24531000D03*
X152761000Y-21991000D03*
X150221000Y-24531000D03*
X150221000Y-21991000D03*
X147681000Y-24531000D03*
X147681000Y-21991000D03*
X145141000Y-24531000D03*
X145141000Y-21991000D03*
X142601000Y-24531000D03*
X142601000Y-21991000D03*
X140061000Y-24531000D03*
X140061000Y-21991000D03*
X137521000Y-24531000D03*
X137521000Y-21991000D03*
X134981000Y-24531000D03*
X134981000Y-21991000D03*
X132441000Y-24531000D03*
X132441000Y-21991000D03*
X129901000Y-24531000D03*
X129901000Y-21991000D03*
%TD*%
D13*
%TO.C,U1*%
X108780000Y-22630000D03*
X108780000Y-25170000D03*
X108780000Y-27710000D03*
X108780000Y-30250000D03*
X108780000Y-32790000D03*
X105780000Y-22630000D03*
X105780000Y-25170000D03*
X105780000Y-27710000D03*
X105780000Y-32790000D03*
D14*
X111430000Y-14830000D03*
X103430000Y-56830000D03*
X103430000Y-14830000D03*
X111430000Y-56830000D03*
%TD*%
D11*
%TO.C,J2*%
X132441000Y-29611000D03*
D12*
X132441000Y-27071000D03*
X129901000Y-29611000D03*
X129901000Y-27071000D03*
%TD*%
M02*
