M48
; DRILL file {KiCad (6.0.4-0)} date 2022 October 27, Thursday 23:32:21
; FORMAT={-:-/ absolute / metric / decimal}
; #@! TF.CreationDate,2022-10-27T23:32:21+02:00
; #@! TF.GenerationSoftware,Kicad,Pcbnew,(6.0.4-0)
; #@! TF.FileFunction,Plated,1,2,PTH
FMAT,2
METRIC
; #@! TA.AperFunction,Plated,PTH,ViaDrill
T1C0.200
; #@! TA.AperFunction,Plated,PTH,ComponentDrill
T2C0.762
; #@! TA.AperFunction,Plated,PTH,ComponentDrill
T3C1.000
; #@! TA.AperFunction,Plated,PTH,ComponentDrill
T4C1.500
%
G90
G05
T1
X107.315Y-26.416
X110.236Y-21.844
X110.236Y-23.495
X110.236Y-24.511
X110.236Y-25.908
X112.141Y-23.368
X112.268Y-21.082
X112.268Y-24.511
X112.268Y-25.908
X113.03Y-23.749
X113.411Y-22.225
X113.665Y-25.146
X114.046Y-22.86
X114.554Y-19.304
X114.681Y-20.955
X114.681Y-24.13
X115.062Y-22.098
X115.062Y-31.623
X116.078Y-15.748
X116.078Y-22.098
X116.078Y-23.368
X116.078Y-27.051
X116.205Y-19.304
X116.205Y-20.828
X117.348Y-14.605
X117.475Y-24.003
X117.475Y-28.067
X118.618Y-15.748
X119.507Y-24.003
X119.634Y-21.336
X120.015Y-28.194
X120.523Y-20.193
X120.523Y-33.528
X120.777Y-39.243
X120.777Y-41.783
X120.904Y-22.606
X121.031Y-31.623
X121.285Y-24.257
X121.285Y-25.781
X121.539Y-27.051
X121.92Y-21.59
X121.92Y-23.622
X122.555Y-26.416
X122.555Y-33.528
X123.063Y-22.86
X123.19Y-28.067
X123.19Y-39.243
X123.19Y-41.783
X123.952Y-23.749
X123.952Y-46.355
X124.079Y-26.416
X124.079Y-40.64
X124.079Y-41.91
X124.079Y-43.18
X124.079Y-53.594
X124.206Y-51.054
X124.968Y-29.083
X125.095Y-27.559
X125.349Y-40.64
X125.73Y-24.257
X125.73Y-25.781
X126.619Y-40.64
X126.746Y-27.559
X126.746Y-29.083
X127.0Y-53.594
X127.127Y-51.054
X127.762Y-23.749
X127.889Y-40.64
X128.143Y-27.559
X128.143Y-29.083
X128.27Y-26.035
X128.524Y-25.019
X129.159Y-40.64
X130.429Y-40.64
X131.699Y-40.64
X132.842Y-56.515
X132.969Y-40.64
X132.969Y-41.91
X132.969Y-43.18
X133.985Y-55.372
X145.563Y-44.312
X145.563Y-44.962
X153.924Y-44.962
X154.762Y-45.411
X160.298Y-18.955
X160.758Y-18.495
X162.56Y-19.05
X167.64Y-18.288
X168.91Y-19.05
X169.672Y-18.288
X171.831Y-25.527
X174.244Y-17.78
X174.371Y-25.527
T2
X105.78Y-22.63
X105.78Y-25.17
X105.78Y-27.71
X105.78Y-32.79
X108.78Y-22.63
X108.78Y-25.17
X108.78Y-27.71
X108.78Y-30.25
X108.78Y-32.79
T3
X129.901Y-21.991
X129.901Y-24.531
X129.901Y-27.071
X129.901Y-29.611
X132.441Y-21.991
X132.441Y-24.531
X132.441Y-27.071
X132.441Y-29.611
X134.981Y-21.991
X134.981Y-24.531
X137.521Y-21.991
X137.521Y-24.531
X140.061Y-21.991
X140.061Y-24.531
X142.601Y-21.991
X142.601Y-24.531
X142.661Y-52.451
X145.141Y-21.991
X145.141Y-24.531
X145.201Y-52.451
X147.681Y-21.991
X147.681Y-24.531
X149.352Y-15.24
X149.352Y-49.276
X150.221Y-21.991
X150.221Y-24.531
X151.892Y-15.24
X151.892Y-49.276
X152.761Y-21.991
X152.761Y-24.531
X154.432Y-15.24
X154.432Y-49.276
X155.301Y-21.991
X155.301Y-24.531
X156.972Y-15.24
X156.972Y-49.276
X157.841Y-21.991
X157.841Y-24.531
X159.512Y-15.24
X159.512Y-49.276
X160.381Y-21.991
X160.381Y-24.531
X162.052Y-15.24
X162.052Y-49.276
X162.921Y-21.991
X162.921Y-24.531
X164.592Y-15.24
X164.592Y-49.276
X165.461Y-21.991
X165.461Y-24.531
X167.132Y-15.24
X167.132Y-49.276
X168.001Y-21.991
X168.001Y-24.531
X170.541Y-21.991
X170.541Y-24.531
X171.45Y-15.24
X173.081Y-21.991
X173.081Y-24.531
X173.99Y-15.24
X175.621Y-21.991
X175.621Y-24.531
X176.53Y-15.24
X178.161Y-21.991
X178.161Y-24.531
X179.07Y-15.24
X181.61Y-15.24
X184.15Y-15.24
T4
G00X102.93Y-14.83
M15
G01X103.93Y-14.83
M16
G05
G00X102.93Y-56.83
M15
G01X103.93Y-56.83
M16
G05
G00X110.93Y-14.83
M15
G01X111.93Y-14.83
M16
G05
G00X110.93Y-56.83
M15
G01X111.93Y-56.83
M16
G05
T0
M30
