%TF.GenerationSoftware,KiCad,Pcbnew,(6.0.4-0)*%
%TF.CreationDate,2022-10-27T23:32:19+02:00*%
%TF.ProjectId,NE2Pi,4e453250-692e-46b6-9963-61645f706362,rev?*%
%TF.SameCoordinates,Original*%
%TF.FileFunction,Legend,Bot*%
%TF.FilePolarity,Positive*%
%FSLAX46Y46*%
G04 Gerber Fmt 4.6, Leading zero omitted, Abs format (unit mm)*
G04 Created by KiCad (PCBNEW (6.0.4-0)) date 2022-10-27 23:32:19*
%MOMM*%
%LPD*%
G01*
G04 APERTURE LIST*
%ADD10C,0.300000*%
G04 APERTURE END LIST*
D10*
X184490714Y-57657142D02*
X184490714Y-54657142D01*
X182776428Y-57657142D01*
X182776428Y-54657142D01*
X181347857Y-56085714D02*
X180347857Y-56085714D01*
X179919285Y-57657142D02*
X181347857Y-57657142D01*
X181347857Y-54657142D01*
X179919285Y-54657142D01*
X178776428Y-54942857D02*
X178633571Y-54800000D01*
X178347857Y-54657142D01*
X177633571Y-54657142D01*
X177347857Y-54800000D01*
X177205000Y-54942857D01*
X177062142Y-55228571D01*
X177062142Y-55514285D01*
X177205000Y-55942857D01*
X178919285Y-57657142D01*
X177062142Y-57657142D01*
X175776428Y-57657142D02*
X175776428Y-54657142D01*
X174633571Y-54657142D01*
X174347857Y-54800000D01*
X174205000Y-54942857D01*
X174062142Y-55228571D01*
X174062142Y-55657142D01*
X174205000Y-55942857D01*
X174347857Y-56085714D01*
X174633571Y-56228571D01*
X175776428Y-56228571D01*
X172776428Y-57657142D02*
X172776428Y-55657142D01*
X172776428Y-54657142D02*
X172919285Y-54800000D01*
X172776428Y-54942857D01*
X172633571Y-54800000D01*
X172776428Y-54657142D01*
X172776428Y-54942857D01*
X169062142Y-57657142D02*
X169062142Y-54657142D01*
X167347857Y-57657142D01*
X167347857Y-54657142D01*
X165490714Y-57657142D02*
X165776428Y-57514285D01*
X165919285Y-57371428D01*
X166062142Y-57085714D01*
X166062142Y-56228571D01*
X165919285Y-55942857D01*
X165776428Y-55800000D01*
X165490714Y-55657142D01*
X165062142Y-55657142D01*
X164776428Y-55800000D01*
X164633571Y-55942857D01*
X164490714Y-56228571D01*
X164490714Y-57085714D01*
X164633571Y-57371428D01*
X164776428Y-57514285D01*
X165062142Y-57657142D01*
X165490714Y-57657142D01*
X161919285Y-57657142D02*
X161919285Y-54657142D01*
X161919285Y-57514285D02*
X162205000Y-57657142D01*
X162776428Y-57657142D01*
X163062142Y-57514285D01*
X163205000Y-57371428D01*
X163347857Y-57085714D01*
X163347857Y-56228571D01*
X163205000Y-55942857D01*
X163062142Y-55800000D01*
X162776428Y-55657142D01*
X162205000Y-55657142D01*
X161919285Y-55800000D01*
X159347857Y-57514285D02*
X159633571Y-57657142D01*
X160205000Y-57657142D01*
X160490714Y-57514285D01*
X160633571Y-57228571D01*
X160633571Y-56085714D01*
X160490714Y-55800000D01*
X160205000Y-55657142D01*
X159633571Y-55657142D01*
X159347857Y-55800000D01*
X159205000Y-56085714D01*
X159205000Y-56371428D01*
X160633571Y-56657142D01*
M02*
