%TF.GenerationSoftware,KiCad,Pcbnew,(6.0.4-0)*%
%TF.CreationDate,2022-10-27T23:32:19+02:00*%
%TF.ProjectId,NE2Pi,4e453250-692e-46b6-9963-61645f706362,rev?*%
%TF.SameCoordinates,Original*%
%TF.FileFunction,Legend,Top*%
%TF.FilePolarity,Positive*%
%FSLAX46Y46*%
G04 Gerber Fmt 4.6, Leading zero omitted, Abs format (unit mm)*
G04 Created by KiCad (PCBNEW (6.0.4-0)) date 2022-10-27 23:32:19*
%MOMM*%
%LPD*%
G01*
G04 APERTURE LIST*
%ADD10C,0.300000*%
%ADD11C,0.150000*%
%ADD12C,0.200000*%
%ADD13C,0.120000*%
G04 APERTURE END LIST*
D10*
X124050000Y-49200000D02*
G75*
G03*
X124050000Y-49200000I-150000J0D01*
G01*
D11*
X107152380Y-52219047D02*
X107866666Y-52219047D01*
X108009523Y-52266666D01*
X108104761Y-52361904D01*
X108152380Y-52504761D01*
X108152380Y-52600000D01*
X108152380Y-51266666D02*
X108152380Y-51742857D01*
X107152380Y-51742857D01*
X108057142Y-50361904D02*
X108104761Y-50409523D01*
X108152380Y-50552380D01*
X108152380Y-50647619D01*
X108104761Y-50790476D01*
X108009523Y-50885714D01*
X107914285Y-50933333D01*
X107723809Y-50980952D01*
X107580952Y-50980952D01*
X107390476Y-50933333D01*
X107295238Y-50885714D01*
X107200000Y-50790476D01*
X107152380Y-50647619D01*
X107152380Y-50552380D01*
X107200000Y-50409523D01*
X107247619Y-50361904D01*
X107152380Y-49647619D02*
X107866666Y-49647619D01*
X108009523Y-49695238D01*
X108104761Y-49790476D01*
X108152380Y-49933333D01*
X108152380Y-50028571D01*
X108152380Y-48695238D02*
X108152380Y-49171428D01*
X107152380Y-49171428D01*
X108057142Y-47790476D02*
X108104761Y-47838095D01*
X108152380Y-47980952D01*
X108152380Y-48076190D01*
X108104761Y-48219047D01*
X108009523Y-48314285D01*
X107914285Y-48361904D01*
X107723809Y-48409523D01*
X107580952Y-48409523D01*
X107390476Y-48361904D01*
X107295238Y-48314285D01*
X107200000Y-48219047D01*
X107152380Y-48076190D01*
X107152380Y-47980952D01*
X107200000Y-47838095D01*
X107247619Y-47790476D01*
X107152380Y-47076190D02*
X107866666Y-47076190D01*
X108009523Y-47123809D01*
X108104761Y-47219047D01*
X108152380Y-47361904D01*
X108152380Y-47457142D01*
X108152380Y-46123809D02*
X108152380Y-46600000D01*
X107152380Y-46600000D01*
X108057142Y-45219047D02*
X108104761Y-45266666D01*
X108152380Y-45409523D01*
X108152380Y-45504761D01*
X108104761Y-45647619D01*
X108009523Y-45742857D01*
X107914285Y-45790476D01*
X107723809Y-45838095D01*
X107580952Y-45838095D01*
X107390476Y-45790476D01*
X107295238Y-45742857D01*
X107200000Y-45647619D01*
X107152380Y-45504761D01*
X107152380Y-45409523D01*
X107200000Y-45266666D01*
X107247619Y-45219047D01*
X107152380Y-44504761D02*
X107866666Y-44504761D01*
X108009523Y-44552380D01*
X108104761Y-44647619D01*
X108152380Y-44790476D01*
X108152380Y-44885714D01*
X108152380Y-43552380D02*
X108152380Y-44028571D01*
X107152380Y-44028571D01*
X108057142Y-42647619D02*
X108104761Y-42695238D01*
X108152380Y-42838095D01*
X108152380Y-42933333D01*
X108104761Y-43076190D01*
X108009523Y-43171428D01*
X107914285Y-43219047D01*
X107723809Y-43266666D01*
X107580952Y-43266666D01*
X107390476Y-43219047D01*
X107295238Y-43171428D01*
X107200000Y-43076190D01*
X107152380Y-42933333D01*
X107152380Y-42838095D01*
X107200000Y-42695238D01*
X107247619Y-42647619D01*
X173823333Y-18486380D02*
X173490000Y-18010190D01*
X173251904Y-18486380D02*
X173251904Y-17486380D01*
X173632857Y-17486380D01*
X173728095Y-17534000D01*
X173775714Y-17581619D01*
X173823333Y-17676857D01*
X173823333Y-17819714D01*
X173775714Y-17914952D01*
X173728095Y-17962571D01*
X173632857Y-18010190D01*
X173251904Y-18010190D01*
X174156666Y-17486380D02*
X174823333Y-18486380D01*
X174823333Y-17486380D02*
X174156666Y-18486380D01*
X175768095Y-17486380D02*
X176339523Y-17486380D01*
X176053809Y-18486380D02*
X176053809Y-17486380D01*
X176577619Y-17486380D02*
X177244285Y-18486380D01*
X177244285Y-17486380D02*
X176577619Y-18486380D01*
X183388095Y-17534000D02*
X183292857Y-17486380D01*
X183150000Y-17486380D01*
X183007142Y-17534000D01*
X182911904Y-17629238D01*
X182864285Y-17724476D01*
X182816666Y-17914952D01*
X182816666Y-18057809D01*
X182864285Y-18248285D01*
X182911904Y-18343523D01*
X183007142Y-18438761D01*
X183150000Y-18486380D01*
X183245238Y-18486380D01*
X183388095Y-18438761D01*
X183435714Y-18391142D01*
X183435714Y-18057809D01*
X183245238Y-18057809D01*
X183864285Y-18486380D02*
X183864285Y-17486380D01*
X184435714Y-18486380D01*
X184435714Y-17486380D01*
X184911904Y-18486380D02*
X184911904Y-17486380D01*
X185150000Y-17486380D01*
X185292857Y-17534000D01*
X185388095Y-17629238D01*
X185435714Y-17724476D01*
X185483333Y-17914952D01*
X185483333Y-18057809D01*
X185435714Y-18248285D01*
X185388095Y-18343523D01*
X185292857Y-18438761D01*
X185150000Y-18486380D01*
X184911904Y-18486380D01*
D10*
X173038285Y-52619571D02*
X173038285Y-51119571D01*
X173895428Y-52619571D01*
X173895428Y-51119571D01*
X174609714Y-51833857D02*
X175109714Y-51833857D01*
X175324000Y-52619571D02*
X174609714Y-52619571D01*
X174609714Y-51119571D01*
X175324000Y-51119571D01*
X175895428Y-51262428D02*
X175966857Y-51191000D01*
X176109714Y-51119571D01*
X176466857Y-51119571D01*
X176609714Y-51191000D01*
X176681142Y-51262428D01*
X176752571Y-51405285D01*
X176752571Y-51548142D01*
X176681142Y-51762428D01*
X175824000Y-52619571D01*
X176752571Y-52619571D01*
X177395428Y-52619571D02*
X177395428Y-51119571D01*
X177966857Y-51119571D01*
X178109714Y-51191000D01*
X178181142Y-51262428D01*
X178252571Y-51405285D01*
X178252571Y-51619571D01*
X178181142Y-51762428D01*
X178109714Y-51833857D01*
X177966857Y-51905285D01*
X177395428Y-51905285D01*
X178895428Y-52619571D02*
X178895428Y-51619571D01*
X178895428Y-51119571D02*
X178824000Y-51191000D01*
X178895428Y-51262428D01*
X178966857Y-51191000D01*
X178895428Y-51119571D01*
X178895428Y-51262428D01*
X180752571Y-52619571D02*
X180752571Y-51119571D01*
X181609714Y-52619571D01*
X181609714Y-51119571D01*
X182538285Y-52619571D02*
X182395428Y-52548142D01*
X182324000Y-52476714D01*
X182252571Y-52333857D01*
X182252571Y-51905285D01*
X182324000Y-51762428D01*
X182395428Y-51691000D01*
X182538285Y-51619571D01*
X182752571Y-51619571D01*
X182895428Y-51691000D01*
X182966857Y-51762428D01*
X183038285Y-51905285D01*
X183038285Y-52333857D01*
X182966857Y-52476714D01*
X182895428Y-52548142D01*
X182752571Y-52619571D01*
X182538285Y-52619571D01*
X184324000Y-52619571D02*
X184324000Y-51119571D01*
X184324000Y-52548142D02*
X184181142Y-52619571D01*
X183895428Y-52619571D01*
X183752571Y-52548142D01*
X183681142Y-52476714D01*
X183609714Y-52333857D01*
X183609714Y-51905285D01*
X183681142Y-51762428D01*
X183752571Y-51691000D01*
X183895428Y-51619571D01*
X184181142Y-51619571D01*
X184324000Y-51691000D01*
X185609714Y-52548142D02*
X185466857Y-52619571D01*
X185181142Y-52619571D01*
X185038285Y-52548142D01*
X184966857Y-52405285D01*
X184966857Y-51833857D01*
X185038285Y-51691000D01*
X185181142Y-51619571D01*
X185466857Y-51619571D01*
X185609714Y-51691000D01*
X185681142Y-51833857D01*
X185681142Y-51976714D01*
X184966857Y-52119571D01*
X173431142Y-54034571D02*
X174002571Y-54034571D01*
X173645428Y-53534571D02*
X173645428Y-54820285D01*
X173716857Y-54963142D01*
X173859714Y-55034571D01*
X174002571Y-55034571D01*
X174502571Y-55034571D02*
X174502571Y-53534571D01*
X174502571Y-54106000D02*
X174645428Y-54034571D01*
X174931142Y-54034571D01*
X175074000Y-54106000D01*
X175145428Y-54177428D01*
X175216857Y-54320285D01*
X175216857Y-54748857D01*
X175145428Y-54891714D01*
X175074000Y-54963142D01*
X174931142Y-55034571D01*
X174645428Y-55034571D01*
X174502571Y-54963142D01*
X175788285Y-54963142D02*
X175931142Y-55034571D01*
X176216857Y-55034571D01*
X176359714Y-54963142D01*
X176431142Y-54820285D01*
X176431142Y-54748857D01*
X176359714Y-54606000D01*
X176216857Y-54534571D01*
X176002571Y-54534571D01*
X175859714Y-54463142D01*
X175788285Y-54320285D01*
X175788285Y-54248857D01*
X175859714Y-54106000D01*
X176002571Y-54034571D01*
X176216857Y-54034571D01*
X176359714Y-54106000D01*
X177074000Y-54034571D02*
X177074000Y-55534571D01*
X177074000Y-54106000D02*
X177216857Y-54034571D01*
X177502571Y-54034571D01*
X177645428Y-54106000D01*
X177716857Y-54177428D01*
X177788285Y-54320285D01*
X177788285Y-54748857D01*
X177716857Y-54891714D01*
X177645428Y-54963142D01*
X177502571Y-55034571D01*
X177216857Y-55034571D01*
X177074000Y-54963142D01*
X179074000Y-55034571D02*
X179074000Y-54248857D01*
X179002571Y-54106000D01*
X178859714Y-54034571D01*
X178574000Y-54034571D01*
X178431142Y-54106000D01*
X179074000Y-54963142D02*
X178931142Y-55034571D01*
X178574000Y-55034571D01*
X178431142Y-54963142D01*
X178359714Y-54820285D01*
X178359714Y-54677428D01*
X178431142Y-54534571D01*
X178574000Y-54463142D01*
X178931142Y-54463142D01*
X179074000Y-54391714D01*
X180431142Y-54963142D02*
X180288285Y-55034571D01*
X180002571Y-55034571D01*
X179859714Y-54963142D01*
X179788285Y-54891714D01*
X179716857Y-54748857D01*
X179716857Y-54320285D01*
X179788285Y-54177428D01*
X179859714Y-54106000D01*
X180002571Y-54034571D01*
X180288285Y-54034571D01*
X180431142Y-54106000D01*
X181645428Y-54963142D02*
X181502571Y-55034571D01*
X181216857Y-55034571D01*
X181074000Y-54963142D01*
X181002571Y-54820285D01*
X181002571Y-54248857D01*
X181074000Y-54106000D01*
X181216857Y-54034571D01*
X181502571Y-54034571D01*
X181645428Y-54106000D01*
X181716857Y-54248857D01*
X181716857Y-54391714D01*
X181002571Y-54534571D01*
X182359714Y-54891714D02*
X182431142Y-54963142D01*
X182359714Y-55034571D01*
X182288285Y-54963142D01*
X182359714Y-54891714D01*
X182359714Y-55034571D01*
X183716857Y-55034571D02*
X183716857Y-53534571D01*
X183716857Y-54963142D02*
X183574000Y-55034571D01*
X183288285Y-55034571D01*
X183145428Y-54963142D01*
X183074000Y-54891714D01*
X183002571Y-54748857D01*
X183002571Y-54320285D01*
X183074000Y-54177428D01*
X183145428Y-54106000D01*
X183288285Y-54034571D01*
X183574000Y-54034571D01*
X183716857Y-54106000D01*
X185002571Y-54963142D02*
X184859714Y-55034571D01*
X184574000Y-55034571D01*
X184431142Y-54963142D01*
X184359714Y-54820285D01*
X184359714Y-54248857D01*
X184431142Y-54106000D01*
X184574000Y-54034571D01*
X184859714Y-54034571D01*
X185002571Y-54106000D01*
X185074000Y-54248857D01*
X185074000Y-54391714D01*
X184359714Y-54534571D01*
X177002571Y-57449571D02*
X176502571Y-56735285D01*
X176145428Y-57449571D02*
X176145428Y-55949571D01*
X176716857Y-55949571D01*
X176859714Y-56021000D01*
X176931142Y-56092428D01*
X177002571Y-56235285D01*
X177002571Y-56449571D01*
X176931142Y-56592428D01*
X176859714Y-56663857D01*
X176716857Y-56735285D01*
X176145428Y-56735285D01*
X178216857Y-57378142D02*
X178074000Y-57449571D01*
X177788285Y-57449571D01*
X177645428Y-57378142D01*
X177574000Y-57235285D01*
X177574000Y-56663857D01*
X177645428Y-56521000D01*
X177788285Y-56449571D01*
X178074000Y-56449571D01*
X178216857Y-56521000D01*
X178288285Y-56663857D01*
X178288285Y-56806714D01*
X177574000Y-56949571D01*
X178788285Y-56449571D02*
X179145428Y-57449571D01*
X179502571Y-56449571D01*
X180074000Y-57306714D02*
X180145428Y-57378142D01*
X180074000Y-57449571D01*
X180002571Y-57378142D01*
X180074000Y-57306714D01*
X180074000Y-57449571D01*
X181859714Y-57021000D02*
X182574000Y-57021000D01*
X181716857Y-57449571D02*
X182216857Y-55949571D01*
X182716857Y-57449571D01*
X139518571Y-28618571D02*
X139018571Y-27904285D01*
X138661428Y-28618571D02*
X138661428Y-27118571D01*
X139232857Y-27118571D01*
X139375714Y-27190000D01*
X139447142Y-27261428D01*
X139518571Y-27404285D01*
X139518571Y-27618571D01*
X139447142Y-27761428D01*
X139375714Y-27832857D01*
X139232857Y-27904285D01*
X138661428Y-27904285D01*
X140804285Y-28618571D02*
X140804285Y-27832857D01*
X140732857Y-27690000D01*
X140590000Y-27618571D01*
X140304285Y-27618571D01*
X140161428Y-27690000D01*
X140804285Y-28547142D02*
X140661428Y-28618571D01*
X140304285Y-28618571D01*
X140161428Y-28547142D01*
X140090000Y-28404285D01*
X140090000Y-28261428D01*
X140161428Y-28118571D01*
X140304285Y-28047142D01*
X140661428Y-28047142D01*
X140804285Y-27975714D01*
X141447142Y-28547142D02*
X141590000Y-28618571D01*
X141875714Y-28618571D01*
X142018571Y-28547142D01*
X142090000Y-28404285D01*
X142090000Y-28332857D01*
X142018571Y-28190000D01*
X141875714Y-28118571D01*
X141661428Y-28118571D01*
X141518571Y-28047142D01*
X141447142Y-27904285D01*
X141447142Y-27832857D01*
X141518571Y-27690000D01*
X141661428Y-27618571D01*
X141875714Y-27618571D01*
X142018571Y-27690000D01*
X142732857Y-27618571D02*
X142732857Y-29118571D01*
X142732857Y-27690000D02*
X142875714Y-27618571D01*
X143161428Y-27618571D01*
X143304285Y-27690000D01*
X143375714Y-27761428D01*
X143447142Y-27904285D01*
X143447142Y-28332857D01*
X143375714Y-28475714D01*
X143304285Y-28547142D01*
X143161428Y-28618571D01*
X142875714Y-28618571D01*
X142732857Y-28547142D01*
X144090000Y-28618571D02*
X144090000Y-27118571D01*
X144090000Y-27690000D02*
X144232857Y-27618571D01*
X144518571Y-27618571D01*
X144661428Y-27690000D01*
X144732857Y-27761428D01*
X144804285Y-27904285D01*
X144804285Y-28332857D01*
X144732857Y-28475714D01*
X144661428Y-28547142D01*
X144518571Y-28618571D01*
X144232857Y-28618571D01*
X144090000Y-28547142D01*
X146018571Y-28547142D02*
X145875714Y-28618571D01*
X145590000Y-28618571D01*
X145447142Y-28547142D01*
X145375714Y-28404285D01*
X145375714Y-27832857D01*
X145447142Y-27690000D01*
X145590000Y-27618571D01*
X145875714Y-27618571D01*
X146018571Y-27690000D01*
X146090000Y-27832857D01*
X146090000Y-27975714D01*
X145375714Y-28118571D01*
X146732857Y-28618571D02*
X146732857Y-27618571D01*
X146732857Y-27904285D02*
X146804285Y-27761428D01*
X146875714Y-27690000D01*
X147018571Y-27618571D01*
X147161428Y-27618571D01*
X147661428Y-28618571D02*
X147661428Y-27618571D01*
X147661428Y-27904285D02*
X147732857Y-27761428D01*
X147804285Y-27690000D01*
X147947142Y-27618571D01*
X148090000Y-27618571D01*
X148447142Y-27618571D02*
X148804285Y-28618571D01*
X149161428Y-27618571D02*
X148804285Y-28618571D01*
X148661428Y-28975714D01*
X148590000Y-29047142D01*
X148447142Y-29118571D01*
X150875714Y-28618571D02*
X150875714Y-27118571D01*
X151447142Y-27118571D01*
X151590000Y-27190000D01*
X151661428Y-27261428D01*
X151732857Y-27404285D01*
X151732857Y-27618571D01*
X151661428Y-27761428D01*
X151590000Y-27832857D01*
X151447142Y-27904285D01*
X150875714Y-27904285D01*
X152375714Y-28618571D02*
X152375714Y-27618571D01*
X152375714Y-27118571D02*
X152304285Y-27190000D01*
X152375714Y-27261428D01*
X152447142Y-27190000D01*
X152375714Y-27118571D01*
X152375714Y-27261428D01*
X154090000Y-27118571D02*
X155090000Y-27118571D01*
X154090000Y-28618571D01*
X155090000Y-28618571D01*
X156232857Y-28547142D02*
X156090000Y-28618571D01*
X155804285Y-28618571D01*
X155661428Y-28547142D01*
X155590000Y-28404285D01*
X155590000Y-27832857D01*
X155661428Y-27690000D01*
X155804285Y-27618571D01*
X156090000Y-27618571D01*
X156232857Y-27690000D01*
X156304285Y-27832857D01*
X156304285Y-27975714D01*
X155590000Y-28118571D01*
X156947142Y-28618571D02*
X156947142Y-27618571D01*
X156947142Y-27904285D02*
X157018571Y-27761428D01*
X157090000Y-27690000D01*
X157232857Y-27618571D01*
X157375714Y-27618571D01*
X158090000Y-28618571D02*
X157947142Y-28547142D01*
X157875714Y-28475714D01*
X157804285Y-28332857D01*
X157804285Y-27904285D01*
X157875714Y-27761428D01*
X157947142Y-27690000D01*
X158090000Y-27618571D01*
X158304285Y-27618571D01*
X158447142Y-27690000D01*
X158518571Y-27761428D01*
X158590000Y-27904285D01*
X158590000Y-28332857D01*
X158518571Y-28475714D01*
X158447142Y-28547142D01*
X158304285Y-28618571D01*
X158090000Y-28618571D01*
D12*
X186531000Y-49451000D02*
X121531000Y-49451000D01*
X121531000Y-49451000D02*
X121531000Y-19451000D01*
X121531000Y-19451000D02*
X186531000Y-19451000D01*
X186531000Y-19451000D02*
X186531000Y-49451000D01*
D11*
X141780047Y-55443380D02*
X141780047Y-54443380D01*
X142018142Y-54443380D01*
X142161000Y-54491000D01*
X142256238Y-54586238D01*
X142303857Y-54681476D01*
X142351476Y-54871952D01*
X142351476Y-55014809D01*
X142303857Y-55205285D01*
X142256238Y-55300523D01*
X142161000Y-55395761D01*
X142018142Y-55443380D01*
X141780047Y-55443380D01*
X142780047Y-55062428D02*
X143541952Y-55062428D01*
X143161000Y-55443380D02*
X143161000Y-54681476D01*
X144320047Y-55443380D02*
X144320047Y-54443380D01*
X144558142Y-54443380D01*
X144701000Y-54491000D01*
X144796238Y-54586238D01*
X144843857Y-54681476D01*
X144891476Y-54871952D01*
X144891476Y-55014809D01*
X144843857Y-55205285D01*
X144796238Y-55300523D01*
X144701000Y-55395761D01*
X144558142Y-55443380D01*
X144320047Y-55443380D01*
X145320047Y-55062428D02*
X146081952Y-55062428D01*
X186142380Y-16835238D02*
X186951904Y-16835238D01*
X187047142Y-16787619D01*
X187094761Y-16740000D01*
X187142380Y-16644761D01*
X187142380Y-16454285D01*
X187094761Y-16359047D01*
X187047142Y-16311428D01*
X186951904Y-16263809D01*
X186142380Y-16263809D01*
X186856666Y-15835238D02*
X186856666Y-15359047D01*
X187142380Y-15930476D02*
X186142380Y-15597142D01*
X187142380Y-15263809D01*
X187142380Y-14359047D02*
X186666190Y-14692380D01*
X187142380Y-14930476D02*
X186142380Y-14930476D01*
X186142380Y-14549523D01*
X186190000Y-14454285D01*
X186237619Y-14406666D01*
X186332857Y-14359047D01*
X186475714Y-14359047D01*
X186570952Y-14406666D01*
X186618571Y-14454285D01*
X186666190Y-14549523D01*
X186666190Y-14930476D01*
X186142380Y-14073333D02*
X186142380Y-13501904D01*
X187142380Y-13787619D02*
X186142380Y-13787619D01*
%TO.C,H2*%
X95823809Y-10985714D02*
X96204761Y-10985714D01*
X95966666Y-10652380D02*
X95966666Y-11509523D01*
X96014285Y-11604761D01*
X96109523Y-11652380D01*
X96204761Y-11652380D01*
X96680952Y-11652380D02*
X96585714Y-11604761D01*
X96538095Y-11557142D01*
X96490476Y-11461904D01*
X96490476Y-11176190D01*
X96538095Y-11080952D01*
X96585714Y-11033333D01*
X96680952Y-10985714D01*
X96823809Y-10985714D01*
X96919047Y-11033333D01*
X96966666Y-11080952D01*
X97014285Y-11176190D01*
X97014285Y-11461904D01*
X96966666Y-11557142D01*
X96919047Y-11604761D01*
X96823809Y-11652380D01*
X96680952Y-11652380D01*
X97585714Y-11652380D02*
X97490476Y-11604761D01*
X97442857Y-11557142D01*
X97395238Y-11461904D01*
X97395238Y-11176190D01*
X97442857Y-11080952D01*
X97490476Y-11033333D01*
X97585714Y-10985714D01*
X97728571Y-10985714D01*
X97823809Y-11033333D01*
X97871428Y-11080952D01*
X97919047Y-11176190D01*
X97919047Y-11461904D01*
X97871428Y-11557142D01*
X97823809Y-11604761D01*
X97728571Y-11652380D01*
X97585714Y-11652380D01*
X98490476Y-11652380D02*
X98395238Y-11604761D01*
X98347619Y-11509523D01*
X98347619Y-10652380D01*
X98871428Y-11652380D02*
X98871428Y-10985714D01*
X98871428Y-10652380D02*
X98823809Y-10700000D01*
X98871428Y-10747619D01*
X98919047Y-10700000D01*
X98871428Y-10652380D01*
X98871428Y-10747619D01*
X99347619Y-10985714D02*
X99347619Y-11652380D01*
X99347619Y-11080952D02*
X99395238Y-11033333D01*
X99490476Y-10985714D01*
X99633333Y-10985714D01*
X99728571Y-11033333D01*
X99776190Y-11128571D01*
X99776190Y-11652380D01*
X100680952Y-10985714D02*
X100680952Y-11795238D01*
X100633333Y-11890476D01*
X100585714Y-11938095D01*
X100490476Y-11985714D01*
X100347619Y-11985714D01*
X100252380Y-11938095D01*
X100680952Y-11604761D02*
X100585714Y-11652380D01*
X100395238Y-11652380D01*
X100300000Y-11604761D01*
X100252380Y-11557142D01*
X100204761Y-11461904D01*
X100204761Y-11176190D01*
X100252380Y-11080952D01*
X100300000Y-11033333D01*
X100395238Y-10985714D01*
X100585714Y-10985714D01*
X100680952Y-11033333D01*
X101919047Y-11652380D02*
X101919047Y-10652380D01*
X102347619Y-11652380D02*
X102347619Y-11128571D01*
X102300000Y-11033333D01*
X102204761Y-10985714D01*
X102061904Y-10985714D01*
X101966666Y-11033333D01*
X101919047Y-11080952D01*
X102966666Y-11652380D02*
X102871428Y-11604761D01*
X102823809Y-11557142D01*
X102776190Y-11461904D01*
X102776190Y-11176190D01*
X102823809Y-11080952D01*
X102871428Y-11033333D01*
X102966666Y-10985714D01*
X103109523Y-10985714D01*
X103204761Y-11033333D01*
X103252380Y-11080952D01*
X103300000Y-11176190D01*
X103300000Y-11461904D01*
X103252380Y-11557142D01*
X103204761Y-11604761D01*
X103109523Y-11652380D01*
X102966666Y-11652380D01*
X103871428Y-11652380D02*
X103776190Y-11604761D01*
X103728571Y-11509523D01*
X103728571Y-10652380D01*
X104633333Y-11604761D02*
X104538095Y-11652380D01*
X104347619Y-11652380D01*
X104252380Y-11604761D01*
X104204761Y-11509523D01*
X104204761Y-11128571D01*
X104252380Y-11033333D01*
X104347619Y-10985714D01*
X104538095Y-10985714D01*
X104633333Y-11033333D01*
X104680952Y-11128571D01*
X104680952Y-11223809D01*
X104204761Y-11319047D01*
%TO.C,H1*%
X180923809Y-60585714D02*
X181304761Y-60585714D01*
X181066666Y-60252380D02*
X181066666Y-61109523D01*
X181114285Y-61204761D01*
X181209523Y-61252380D01*
X181304761Y-61252380D01*
X181780952Y-61252380D02*
X181685714Y-61204761D01*
X181638095Y-61157142D01*
X181590476Y-61061904D01*
X181590476Y-60776190D01*
X181638095Y-60680952D01*
X181685714Y-60633333D01*
X181780952Y-60585714D01*
X181923809Y-60585714D01*
X182019047Y-60633333D01*
X182066666Y-60680952D01*
X182114285Y-60776190D01*
X182114285Y-61061904D01*
X182066666Y-61157142D01*
X182019047Y-61204761D01*
X181923809Y-61252380D01*
X181780952Y-61252380D01*
X182685714Y-61252380D02*
X182590476Y-61204761D01*
X182542857Y-61157142D01*
X182495238Y-61061904D01*
X182495238Y-60776190D01*
X182542857Y-60680952D01*
X182590476Y-60633333D01*
X182685714Y-60585714D01*
X182828571Y-60585714D01*
X182923809Y-60633333D01*
X182971428Y-60680952D01*
X183019047Y-60776190D01*
X183019047Y-61061904D01*
X182971428Y-61157142D01*
X182923809Y-61204761D01*
X182828571Y-61252380D01*
X182685714Y-61252380D01*
X183590476Y-61252380D02*
X183495238Y-61204761D01*
X183447619Y-61109523D01*
X183447619Y-60252380D01*
X183971428Y-61252380D02*
X183971428Y-60585714D01*
X183971428Y-60252380D02*
X183923809Y-60300000D01*
X183971428Y-60347619D01*
X184019047Y-60300000D01*
X183971428Y-60252380D01*
X183971428Y-60347619D01*
X184447619Y-60585714D02*
X184447619Y-61252380D01*
X184447619Y-60680952D02*
X184495238Y-60633333D01*
X184590476Y-60585714D01*
X184733333Y-60585714D01*
X184828571Y-60633333D01*
X184876190Y-60728571D01*
X184876190Y-61252380D01*
X185780952Y-60585714D02*
X185780952Y-61395238D01*
X185733333Y-61490476D01*
X185685714Y-61538095D01*
X185590476Y-61585714D01*
X185447619Y-61585714D01*
X185352380Y-61538095D01*
X185780952Y-61204761D02*
X185685714Y-61252380D01*
X185495238Y-61252380D01*
X185400000Y-61204761D01*
X185352380Y-61157142D01*
X185304761Y-61061904D01*
X185304761Y-60776190D01*
X185352380Y-60680952D01*
X185400000Y-60633333D01*
X185495238Y-60585714D01*
X185685714Y-60585714D01*
X185780952Y-60633333D01*
X187019047Y-61252380D02*
X187019047Y-60252380D01*
X187447619Y-61252380D02*
X187447619Y-60728571D01*
X187400000Y-60633333D01*
X187304761Y-60585714D01*
X187161904Y-60585714D01*
X187066666Y-60633333D01*
X187019047Y-60680952D01*
X188066666Y-61252380D02*
X187971428Y-61204761D01*
X187923809Y-61157142D01*
X187876190Y-61061904D01*
X187876190Y-60776190D01*
X187923809Y-60680952D01*
X187971428Y-60633333D01*
X188066666Y-60585714D01*
X188209523Y-60585714D01*
X188304761Y-60633333D01*
X188352380Y-60680952D01*
X188400000Y-60776190D01*
X188400000Y-61061904D01*
X188352380Y-61157142D01*
X188304761Y-61204761D01*
X188209523Y-61252380D01*
X188066666Y-61252380D01*
X188971428Y-61252380D02*
X188876190Y-61204761D01*
X188828571Y-61109523D01*
X188828571Y-60252380D01*
X189733333Y-61204761D02*
X189638095Y-61252380D01*
X189447619Y-61252380D01*
X189352380Y-61204761D01*
X189304761Y-61109523D01*
X189304761Y-60728571D01*
X189352380Y-60633333D01*
X189447619Y-60585714D01*
X189638095Y-60585714D01*
X189733333Y-60633333D01*
X189780952Y-60728571D01*
X189780952Y-60823809D01*
X189304761Y-60919047D01*
%TO.C,J5*%
X146534380Y-11188333D02*
X147248666Y-11188333D01*
X147391523Y-11235952D01*
X147486761Y-11331190D01*
X147534380Y-11474047D01*
X147534380Y-11569285D01*
X146534380Y-10235952D02*
X146534380Y-10712142D01*
X147010571Y-10759761D01*
X146962952Y-10712142D01*
X146915333Y-10616904D01*
X146915333Y-10378809D01*
X146962952Y-10283571D01*
X147010571Y-10235952D01*
X147105809Y-10188333D01*
X147343904Y-10188333D01*
X147439142Y-10235952D01*
X147486761Y-10283571D01*
X147534380Y-10378809D01*
X147534380Y-10616904D01*
X147486761Y-10712142D01*
X147439142Y-10759761D01*
%TO.C,C10*%
X124325142Y-39727142D02*
X124277523Y-39774761D01*
X124134666Y-39822380D01*
X124039428Y-39822380D01*
X123896571Y-39774761D01*
X123801333Y-39679523D01*
X123753714Y-39584285D01*
X123706095Y-39393809D01*
X123706095Y-39250952D01*
X123753714Y-39060476D01*
X123801333Y-38965238D01*
X123896571Y-38870000D01*
X124039428Y-38822380D01*
X124134666Y-38822380D01*
X124277523Y-38870000D01*
X124325142Y-38917619D01*
X125277523Y-39822380D02*
X124706095Y-39822380D01*
X124991809Y-39822380D02*
X124991809Y-38822380D01*
X124896571Y-38965238D01*
X124801333Y-39060476D01*
X124706095Y-39108095D01*
X125896571Y-38822380D02*
X125991809Y-38822380D01*
X126087047Y-38870000D01*
X126134666Y-38917619D01*
X126182285Y-39012857D01*
X126229904Y-39203333D01*
X126229904Y-39441428D01*
X126182285Y-39631904D01*
X126134666Y-39727142D01*
X126087047Y-39774761D01*
X125991809Y-39822380D01*
X125896571Y-39822380D01*
X125801333Y-39774761D01*
X125753714Y-39727142D01*
X125706095Y-39631904D01*
X125658476Y-39441428D01*
X125658476Y-39203333D01*
X125706095Y-39012857D01*
X125753714Y-38917619D01*
X125801333Y-38870000D01*
X125896571Y-38822380D01*
%TO.C,R6*%
X133676380Y-52617666D02*
X133200190Y-52951000D01*
X133676380Y-53189095D02*
X132676380Y-53189095D01*
X132676380Y-52808142D01*
X132724000Y-52712904D01*
X132771619Y-52665285D01*
X132866857Y-52617666D01*
X133009714Y-52617666D01*
X133104952Y-52665285D01*
X133152571Y-52712904D01*
X133200190Y-52808142D01*
X133200190Y-53189095D01*
X132676380Y-51760523D02*
X132676380Y-51951000D01*
X132724000Y-52046238D01*
X132771619Y-52093857D01*
X132914476Y-52189095D01*
X133104952Y-52236714D01*
X133485904Y-52236714D01*
X133581142Y-52189095D01*
X133628761Y-52141476D01*
X133676380Y-52046238D01*
X133676380Y-51855761D01*
X133628761Y-51760523D01*
X133581142Y-51712904D01*
X133485904Y-51665285D01*
X133247809Y-51665285D01*
X133152571Y-51712904D01*
X133104952Y-51760523D01*
X133057333Y-51855761D01*
X133057333Y-52046238D01*
X133104952Y-52141476D01*
X133152571Y-52189095D01*
X133247809Y-52236714D01*
%TO.C,R3*%
X119578380Y-15914666D02*
X119102190Y-16248000D01*
X119578380Y-16486095D02*
X118578380Y-16486095D01*
X118578380Y-16105142D01*
X118626000Y-16009904D01*
X118673619Y-15962285D01*
X118768857Y-15914666D01*
X118911714Y-15914666D01*
X119006952Y-15962285D01*
X119054571Y-16009904D01*
X119102190Y-16105142D01*
X119102190Y-16486095D01*
X118578380Y-15581333D02*
X118578380Y-14962285D01*
X118959333Y-15295619D01*
X118959333Y-15152761D01*
X119006952Y-15057523D01*
X119054571Y-15009904D01*
X119149809Y-14962285D01*
X119387904Y-14962285D01*
X119483142Y-15009904D01*
X119530761Y-15057523D01*
X119578380Y-15152761D01*
X119578380Y-15438476D01*
X119530761Y-15533714D01*
X119483142Y-15581333D01*
%TO.C,C6*%
X121232142Y-35599666D02*
X121279761Y-35647285D01*
X121327380Y-35790142D01*
X121327380Y-35885380D01*
X121279761Y-36028238D01*
X121184523Y-36123476D01*
X121089285Y-36171095D01*
X120898809Y-36218714D01*
X120755952Y-36218714D01*
X120565476Y-36171095D01*
X120470238Y-36123476D01*
X120375000Y-36028238D01*
X120327380Y-35885380D01*
X120327380Y-35790142D01*
X120375000Y-35647285D01*
X120422619Y-35599666D01*
X120327380Y-34742523D02*
X120327380Y-34933000D01*
X120375000Y-35028238D01*
X120422619Y-35075857D01*
X120565476Y-35171095D01*
X120755952Y-35218714D01*
X121136904Y-35218714D01*
X121232142Y-35171095D01*
X121279761Y-35123476D01*
X121327380Y-35028238D01*
X121327380Y-34837761D01*
X121279761Y-34742523D01*
X121232142Y-34694904D01*
X121136904Y-34647285D01*
X120898809Y-34647285D01*
X120803571Y-34694904D01*
X120755952Y-34742523D01*
X120708333Y-34837761D01*
X120708333Y-35028238D01*
X120755952Y-35123476D01*
X120803571Y-35171095D01*
X120898809Y-35218714D01*
%TO.C,R8*%
X129650833Y-57601380D02*
X129317500Y-57125190D01*
X129079404Y-57601380D02*
X129079404Y-56601380D01*
X129460357Y-56601380D01*
X129555595Y-56649000D01*
X129603214Y-56696619D01*
X129650833Y-56791857D01*
X129650833Y-56934714D01*
X129603214Y-57029952D01*
X129555595Y-57077571D01*
X129460357Y-57125190D01*
X129079404Y-57125190D01*
X130222261Y-57029952D02*
X130127023Y-56982333D01*
X130079404Y-56934714D01*
X130031785Y-56839476D01*
X130031785Y-56791857D01*
X130079404Y-56696619D01*
X130127023Y-56649000D01*
X130222261Y-56601380D01*
X130412738Y-56601380D01*
X130507976Y-56649000D01*
X130555595Y-56696619D01*
X130603214Y-56791857D01*
X130603214Y-56839476D01*
X130555595Y-56934714D01*
X130507976Y-56982333D01*
X130412738Y-57029952D01*
X130222261Y-57029952D01*
X130127023Y-57077571D01*
X130079404Y-57125190D01*
X130031785Y-57220428D01*
X130031785Y-57410904D01*
X130079404Y-57506142D01*
X130127023Y-57553761D01*
X130222261Y-57601380D01*
X130412738Y-57601380D01*
X130507976Y-57553761D01*
X130555595Y-57506142D01*
X130603214Y-57410904D01*
X130603214Y-57220428D01*
X130555595Y-57125190D01*
X130507976Y-57077571D01*
X130412738Y-57029952D01*
%TO.C,JP1*%
X116895666Y-33869380D02*
X116895666Y-34583666D01*
X116848047Y-34726523D01*
X116752809Y-34821761D01*
X116609952Y-34869380D01*
X116514714Y-34869380D01*
X117371857Y-34869380D02*
X117371857Y-33869380D01*
X117752809Y-33869380D01*
X117848047Y-33917000D01*
X117895666Y-33964619D01*
X117943285Y-34059857D01*
X117943285Y-34202714D01*
X117895666Y-34297952D01*
X117848047Y-34345571D01*
X117752809Y-34393190D01*
X117371857Y-34393190D01*
X118895666Y-34869380D02*
X118324238Y-34869380D01*
X118609952Y-34869380D02*
X118609952Y-33869380D01*
X118514714Y-34012238D01*
X118419476Y-34107476D01*
X118324238Y-34155095D01*
X128739238Y-38028571D02*
X128882095Y-38076190D01*
X128929714Y-38123809D01*
X128977333Y-38219047D01*
X128977333Y-38361904D01*
X128929714Y-38457142D01*
X128882095Y-38504761D01*
X128786857Y-38552380D01*
X128405904Y-38552380D01*
X128405904Y-37552380D01*
X128739238Y-37552380D01*
X128834476Y-37600000D01*
X128882095Y-37647619D01*
X128929714Y-37742857D01*
X128929714Y-37838095D01*
X128882095Y-37933333D01*
X128834476Y-37980952D01*
X128739238Y-38028571D01*
X128405904Y-38028571D01*
X129548761Y-38552380D02*
X129453523Y-38504761D01*
X129405904Y-38457142D01*
X129358285Y-38361904D01*
X129358285Y-38076190D01*
X129405904Y-37980952D01*
X129453523Y-37933333D01*
X129548761Y-37885714D01*
X129691619Y-37885714D01*
X129786857Y-37933333D01*
X129834476Y-37980952D01*
X129882095Y-38076190D01*
X129882095Y-38361904D01*
X129834476Y-38457142D01*
X129786857Y-38504761D01*
X129691619Y-38552380D01*
X129548761Y-38552380D01*
X130453523Y-38552380D02*
X130358285Y-38504761D01*
X130310666Y-38457142D01*
X130263047Y-38361904D01*
X130263047Y-38076190D01*
X130310666Y-37980952D01*
X130358285Y-37933333D01*
X130453523Y-37885714D01*
X130596380Y-37885714D01*
X130691619Y-37933333D01*
X130739238Y-37980952D01*
X130786857Y-38076190D01*
X130786857Y-38361904D01*
X130739238Y-38457142D01*
X130691619Y-38504761D01*
X130596380Y-38552380D01*
X130453523Y-38552380D01*
X131167809Y-38504761D02*
X131263047Y-38552380D01*
X131453523Y-38552380D01*
X131548761Y-38504761D01*
X131596380Y-38409523D01*
X131596380Y-38361904D01*
X131548761Y-38266666D01*
X131453523Y-38219047D01*
X131310666Y-38219047D01*
X131215428Y-38171428D01*
X131167809Y-38076190D01*
X131167809Y-38028571D01*
X131215428Y-37933333D01*
X131310666Y-37885714D01*
X131453523Y-37885714D01*
X131548761Y-37933333D01*
X131882095Y-37885714D02*
X132263047Y-37885714D01*
X132024952Y-37552380D02*
X132024952Y-38409523D01*
X132072571Y-38504761D01*
X132167809Y-38552380D01*
X132263047Y-38552380D01*
X133263047Y-37885714D02*
X133501142Y-38552380D01*
X133739238Y-37885714D01*
X134263047Y-38552380D02*
X134167809Y-38504761D01*
X134120190Y-38457142D01*
X134072571Y-38361904D01*
X134072571Y-38076190D01*
X134120190Y-37980952D01*
X134167809Y-37933333D01*
X134263047Y-37885714D01*
X134405904Y-37885714D01*
X134501142Y-37933333D01*
X134548761Y-37980952D01*
X134596380Y-38076190D01*
X134596380Y-38361904D01*
X134548761Y-38457142D01*
X134501142Y-38504761D01*
X134405904Y-38552380D01*
X134263047Y-38552380D01*
X135167809Y-38552380D02*
X135072571Y-38504761D01*
X135024952Y-38409523D01*
X135024952Y-37552380D01*
X135405904Y-37885714D02*
X135786857Y-37885714D01*
X135548761Y-37552380D02*
X135548761Y-38409523D01*
X135596380Y-38504761D01*
X135691619Y-38552380D01*
X135786857Y-38552380D01*
X136548761Y-38552380D02*
X136548761Y-38028571D01*
X136501142Y-37933333D01*
X136405904Y-37885714D01*
X136215428Y-37885714D01*
X136120190Y-37933333D01*
X136548761Y-38504761D02*
X136453523Y-38552380D01*
X136215428Y-38552380D01*
X136120190Y-38504761D01*
X136072571Y-38409523D01*
X136072571Y-38314285D01*
X136120190Y-38219047D01*
X136215428Y-38171428D01*
X136453523Y-38171428D01*
X136548761Y-38123809D01*
X137453523Y-37885714D02*
X137453523Y-38695238D01*
X137405904Y-38790476D01*
X137358285Y-38838095D01*
X137263047Y-38885714D01*
X137120190Y-38885714D01*
X137024952Y-38838095D01*
X137453523Y-38504761D02*
X137358285Y-38552380D01*
X137167809Y-38552380D01*
X137072571Y-38504761D01*
X137024952Y-38457142D01*
X136977333Y-38361904D01*
X136977333Y-38076190D01*
X137024952Y-37980952D01*
X137072571Y-37933333D01*
X137167809Y-37885714D01*
X137358285Y-37885714D01*
X137453523Y-37933333D01*
X138310666Y-38504761D02*
X138215428Y-38552380D01*
X138024952Y-38552380D01*
X137929714Y-38504761D01*
X137882095Y-38409523D01*
X137882095Y-38028571D01*
X137929714Y-37933333D01*
X138024952Y-37885714D01*
X138215428Y-37885714D01*
X138310666Y-37933333D01*
X138358285Y-38028571D01*
X138358285Y-38123809D01*
X137882095Y-38219047D01*
X139501142Y-38504761D02*
X139596380Y-38552380D01*
X139786857Y-38552380D01*
X139882095Y-38504761D01*
X139929714Y-38409523D01*
X139929714Y-38361904D01*
X139882095Y-38266666D01*
X139786857Y-38219047D01*
X139644000Y-38219047D01*
X139548761Y-38171428D01*
X139501142Y-38076190D01*
X139501142Y-38028571D01*
X139548761Y-37933333D01*
X139644000Y-37885714D01*
X139786857Y-37885714D01*
X139882095Y-37933333D01*
X140786857Y-37885714D02*
X140786857Y-38552380D01*
X140358285Y-37885714D02*
X140358285Y-38409523D01*
X140405904Y-38504761D01*
X140501142Y-38552380D01*
X140644000Y-38552380D01*
X140739238Y-38504761D01*
X140786857Y-38457142D01*
X141263047Y-37885714D02*
X141263047Y-38885714D01*
X141263047Y-37933333D02*
X141358285Y-37885714D01*
X141548761Y-37885714D01*
X141644000Y-37933333D01*
X141691619Y-37980952D01*
X141739238Y-38076190D01*
X141739238Y-38361904D01*
X141691619Y-38457142D01*
X141644000Y-38504761D01*
X141548761Y-38552380D01*
X141358285Y-38552380D01*
X141263047Y-38504761D01*
X142167809Y-37885714D02*
X142167809Y-38885714D01*
X142167809Y-37933333D02*
X142263047Y-37885714D01*
X142453523Y-37885714D01*
X142548761Y-37933333D01*
X142596380Y-37980952D01*
X142644000Y-38076190D01*
X142644000Y-38361904D01*
X142596380Y-38457142D01*
X142548761Y-38504761D01*
X142453523Y-38552380D01*
X142263047Y-38552380D01*
X142167809Y-38504761D01*
X143215428Y-38552380D02*
X143120190Y-38504761D01*
X143072571Y-38409523D01*
X143072571Y-37552380D01*
X143501142Y-37885714D02*
X143739238Y-38552380D01*
X143977333Y-37885714D02*
X143739238Y-38552380D01*
X143644000Y-38790476D01*
X143596380Y-38838095D01*
X143501142Y-38885714D01*
%TO.C,L1*%
X128484333Y-40833380D02*
X128008142Y-40833380D01*
X128008142Y-39833380D01*
X129341476Y-40833380D02*
X128770047Y-40833380D01*
X129055761Y-40833380D02*
X129055761Y-39833380D01*
X128960523Y-39976238D01*
X128865285Y-40071476D01*
X128770047Y-40119095D01*
%TO.C,FB1*%
X121594666Y-31069571D02*
X121261333Y-31069571D01*
X121261333Y-31593380D02*
X121261333Y-30593380D01*
X121737523Y-30593380D01*
X122451809Y-31069571D02*
X122594666Y-31117190D01*
X122642285Y-31164809D01*
X122689904Y-31260047D01*
X122689904Y-31402904D01*
X122642285Y-31498142D01*
X122594666Y-31545761D01*
X122499428Y-31593380D01*
X122118476Y-31593380D01*
X122118476Y-30593380D01*
X122451809Y-30593380D01*
X122547047Y-30641000D01*
X122594666Y-30688619D01*
X122642285Y-30783857D01*
X122642285Y-30879095D01*
X122594666Y-30974333D01*
X122547047Y-31021952D01*
X122451809Y-31069571D01*
X122118476Y-31069571D01*
X123642285Y-31593380D02*
X123070857Y-31593380D01*
X123356571Y-31593380D02*
X123356571Y-30593380D01*
X123261333Y-30736238D01*
X123166095Y-30831476D01*
X123070857Y-30879095D01*
%TO.C,C4*%
X121389142Y-53379666D02*
X121436761Y-53427285D01*
X121484380Y-53570142D01*
X121484380Y-53665380D01*
X121436761Y-53808238D01*
X121341523Y-53903476D01*
X121246285Y-53951095D01*
X121055809Y-53998714D01*
X120912952Y-53998714D01*
X120722476Y-53951095D01*
X120627238Y-53903476D01*
X120532000Y-53808238D01*
X120484380Y-53665380D01*
X120484380Y-53570142D01*
X120532000Y-53427285D01*
X120579619Y-53379666D01*
X120817714Y-52522523D02*
X121484380Y-52522523D01*
X120436761Y-52760619D02*
X121151047Y-52998714D01*
X121151047Y-52379666D01*
%TO.C,D1*%
X119618380Y-47347095D02*
X118618380Y-47347095D01*
X118618380Y-47109000D01*
X118666000Y-46966142D01*
X118761238Y-46870904D01*
X118856476Y-46823285D01*
X119046952Y-46775666D01*
X119189809Y-46775666D01*
X119380285Y-46823285D01*
X119475523Y-46870904D01*
X119570761Y-46966142D01*
X119618380Y-47109000D01*
X119618380Y-47347095D01*
X119618380Y-45823285D02*
X119618380Y-46394714D01*
X119618380Y-46109000D02*
X118618380Y-46109000D01*
X118761238Y-46204238D01*
X118856476Y-46299476D01*
X118904095Y-46394714D01*
%TO.C,C8*%
X121388142Y-32805666D02*
X121435761Y-32853285D01*
X121483380Y-32996142D01*
X121483380Y-33091380D01*
X121435761Y-33234238D01*
X121340523Y-33329476D01*
X121245285Y-33377095D01*
X121054809Y-33424714D01*
X120911952Y-33424714D01*
X120721476Y-33377095D01*
X120626238Y-33329476D01*
X120531000Y-33234238D01*
X120483380Y-33091380D01*
X120483380Y-32996142D01*
X120531000Y-32853285D01*
X120578619Y-32805666D01*
X120911952Y-32234238D02*
X120864333Y-32329476D01*
X120816714Y-32377095D01*
X120721476Y-32424714D01*
X120673857Y-32424714D01*
X120578619Y-32377095D01*
X120531000Y-32329476D01*
X120483380Y-32234238D01*
X120483380Y-32043761D01*
X120531000Y-31948523D01*
X120578619Y-31900904D01*
X120673857Y-31853285D01*
X120721476Y-31853285D01*
X120816714Y-31900904D01*
X120864333Y-31948523D01*
X120911952Y-32043761D01*
X120911952Y-32234238D01*
X120959571Y-32329476D01*
X121007190Y-32377095D01*
X121102428Y-32424714D01*
X121292904Y-32424714D01*
X121388142Y-32377095D01*
X121435761Y-32329476D01*
X121483380Y-32234238D01*
X121483380Y-32043761D01*
X121435761Y-31948523D01*
X121388142Y-31900904D01*
X121292904Y-31853285D01*
X121102428Y-31853285D01*
X121007190Y-31900904D01*
X120959571Y-31948523D01*
X120911952Y-32043761D01*
%TO.C,C3*%
X133199142Y-57824666D02*
X133246761Y-57872285D01*
X133294380Y-58015142D01*
X133294380Y-58110380D01*
X133246761Y-58253238D01*
X133151523Y-58348476D01*
X133056285Y-58396095D01*
X132865809Y-58443714D01*
X132722952Y-58443714D01*
X132532476Y-58396095D01*
X132437238Y-58348476D01*
X132342000Y-58253238D01*
X132294380Y-58110380D01*
X132294380Y-58015142D01*
X132342000Y-57872285D01*
X132389619Y-57824666D01*
X132294380Y-57491333D02*
X132294380Y-56872285D01*
X132675333Y-57205619D01*
X132675333Y-57062761D01*
X132722952Y-56967523D01*
X132770571Y-56919904D01*
X132865809Y-56872285D01*
X133103904Y-56872285D01*
X133199142Y-56919904D01*
X133246761Y-56967523D01*
X133294380Y-57062761D01*
X133294380Y-57348476D01*
X133246761Y-57443714D01*
X133199142Y-57491333D01*
%TO.C,C1*%
X122052142Y-26201666D02*
X122099761Y-26249285D01*
X122147380Y-26392142D01*
X122147380Y-26487380D01*
X122099761Y-26630238D01*
X122004523Y-26725476D01*
X121909285Y-26773095D01*
X121718809Y-26820714D01*
X121575952Y-26820714D01*
X121385476Y-26773095D01*
X121290238Y-26725476D01*
X121195000Y-26630238D01*
X121147380Y-26487380D01*
X121147380Y-26392142D01*
X121195000Y-26249285D01*
X121242619Y-26201666D01*
X122147380Y-25249285D02*
X122147380Y-25820714D01*
X122147380Y-25535000D02*
X121147380Y-25535000D01*
X121290238Y-25630238D01*
X121385476Y-25725476D01*
X121433095Y-25820714D01*
%TO.C,FB2*%
X124769666Y-37927571D02*
X124436333Y-37927571D01*
X124436333Y-38451380D02*
X124436333Y-37451380D01*
X124912523Y-37451380D01*
X125626809Y-37927571D02*
X125769666Y-37975190D01*
X125817285Y-38022809D01*
X125864904Y-38118047D01*
X125864904Y-38260904D01*
X125817285Y-38356142D01*
X125769666Y-38403761D01*
X125674428Y-38451380D01*
X125293476Y-38451380D01*
X125293476Y-37451380D01*
X125626809Y-37451380D01*
X125722047Y-37499000D01*
X125769666Y-37546619D01*
X125817285Y-37641857D01*
X125817285Y-37737095D01*
X125769666Y-37832333D01*
X125722047Y-37879952D01*
X125626809Y-37927571D01*
X125293476Y-37927571D01*
X126245857Y-37546619D02*
X126293476Y-37499000D01*
X126388714Y-37451380D01*
X126626809Y-37451380D01*
X126722047Y-37499000D01*
X126769666Y-37546619D01*
X126817285Y-37641857D01*
X126817285Y-37737095D01*
X126769666Y-37879952D01*
X126198238Y-38451380D01*
X126817285Y-38451380D01*
%TO.C,R4*%
X116277380Y-26201666D02*
X115801190Y-26535000D01*
X116277380Y-26773095D02*
X115277380Y-26773095D01*
X115277380Y-26392142D01*
X115325000Y-26296904D01*
X115372619Y-26249285D01*
X115467857Y-26201666D01*
X115610714Y-26201666D01*
X115705952Y-26249285D01*
X115753571Y-26296904D01*
X115801190Y-26392142D01*
X115801190Y-26773095D01*
X115610714Y-25344523D02*
X116277380Y-25344523D01*
X115229761Y-25582619D02*
X115944047Y-25820714D01*
X115944047Y-25201666D01*
%TO.C,U2*%
X154157904Y-37778619D02*
X154157904Y-36969095D01*
X154110285Y-36873857D01*
X154062666Y-36826238D01*
X153967428Y-36778619D01*
X153776952Y-36778619D01*
X153681714Y-36826238D01*
X153634095Y-36873857D01*
X153586476Y-36969095D01*
X153586476Y-37778619D01*
X153157904Y-37683380D02*
X153110285Y-37731000D01*
X153015047Y-37778619D01*
X152776952Y-37778619D01*
X152681714Y-37731000D01*
X152634095Y-37683380D01*
X152586476Y-37588142D01*
X152586476Y-37492904D01*
X152634095Y-37350047D01*
X153205523Y-36778619D01*
X152586476Y-36778619D01*
%TO.C,C7*%
X116054142Y-31916666D02*
X116101761Y-31964285D01*
X116149380Y-32107142D01*
X116149380Y-32202380D01*
X116101761Y-32345238D01*
X116006523Y-32440476D01*
X115911285Y-32488095D01*
X115720809Y-32535714D01*
X115577952Y-32535714D01*
X115387476Y-32488095D01*
X115292238Y-32440476D01*
X115197000Y-32345238D01*
X115149380Y-32202380D01*
X115149380Y-32107142D01*
X115197000Y-31964285D01*
X115244619Y-31916666D01*
X115149380Y-31583333D02*
X115149380Y-30916666D01*
X116149380Y-31345238D01*
%TO.C,R5*%
X134944380Y-50839666D02*
X134468190Y-51173000D01*
X134944380Y-51411095D02*
X133944380Y-51411095D01*
X133944380Y-51030142D01*
X133992000Y-50934904D01*
X134039619Y-50887285D01*
X134134857Y-50839666D01*
X134277714Y-50839666D01*
X134372952Y-50887285D01*
X134420571Y-50934904D01*
X134468190Y-51030142D01*
X134468190Y-51411095D01*
X133944380Y-49934904D02*
X133944380Y-50411095D01*
X134420571Y-50458714D01*
X134372952Y-50411095D01*
X134325333Y-50315857D01*
X134325333Y-50077761D01*
X134372952Y-49982523D01*
X134420571Y-49934904D01*
X134515809Y-49887285D01*
X134753904Y-49887285D01*
X134849142Y-49934904D01*
X134896761Y-49982523D01*
X134944380Y-50077761D01*
X134944380Y-50315857D01*
X134896761Y-50411095D01*
X134849142Y-50458714D01*
%TO.C,U1*%
X96182380Y-57591904D02*
X96991904Y-57591904D01*
X97087142Y-57544285D01*
X97134761Y-57496666D01*
X97182380Y-57401428D01*
X97182380Y-57210952D01*
X97134761Y-57115714D01*
X97087142Y-57068095D01*
X96991904Y-57020476D01*
X96182380Y-57020476D01*
X97182380Y-56020476D02*
X97182380Y-56591904D01*
X97182380Y-56306190D02*
X96182380Y-56306190D01*
X96325238Y-56401428D01*
X96420476Y-56496666D01*
X96468095Y-56591904D01*
%TO.C,C2*%
X121118333Y-23217142D02*
X121070714Y-23264761D01*
X120927857Y-23312380D01*
X120832619Y-23312380D01*
X120689761Y-23264761D01*
X120594523Y-23169523D01*
X120546904Y-23074285D01*
X120499285Y-22883809D01*
X120499285Y-22740952D01*
X120546904Y-22550476D01*
X120594523Y-22455238D01*
X120689761Y-22360000D01*
X120832619Y-22312380D01*
X120927857Y-22312380D01*
X121070714Y-22360000D01*
X121118333Y-22407619D01*
X121499285Y-22407619D02*
X121546904Y-22360000D01*
X121642142Y-22312380D01*
X121880238Y-22312380D01*
X121975476Y-22360000D01*
X122023095Y-22407619D01*
X122070714Y-22502857D01*
X122070714Y-22598095D01*
X122023095Y-22740952D01*
X121451666Y-23312380D01*
X122070714Y-23312380D01*
%TO.C,R1*%
X124166333Y-23693380D02*
X123833000Y-23217190D01*
X123594904Y-23693380D02*
X123594904Y-22693380D01*
X123975857Y-22693380D01*
X124071095Y-22741000D01*
X124118714Y-22788619D01*
X124166333Y-22883857D01*
X124166333Y-23026714D01*
X124118714Y-23121952D01*
X124071095Y-23169571D01*
X123975857Y-23217190D01*
X123594904Y-23217190D01*
X125118714Y-23693380D02*
X124547285Y-23693380D01*
X124833000Y-23693380D02*
X124833000Y-22693380D01*
X124737761Y-22836238D01*
X124642523Y-22931476D01*
X124547285Y-22979095D01*
%TO.C,C5*%
X114530142Y-31916666D02*
X114577761Y-31964285D01*
X114625380Y-32107142D01*
X114625380Y-32202380D01*
X114577761Y-32345238D01*
X114482523Y-32440476D01*
X114387285Y-32488095D01*
X114196809Y-32535714D01*
X114053952Y-32535714D01*
X113863476Y-32488095D01*
X113768238Y-32440476D01*
X113673000Y-32345238D01*
X113625380Y-32202380D01*
X113625380Y-32107142D01*
X113673000Y-31964285D01*
X113720619Y-31916666D01*
X113625380Y-31011904D02*
X113625380Y-31488095D01*
X114101571Y-31535714D01*
X114053952Y-31488095D01*
X114006333Y-31392857D01*
X114006333Y-31154761D01*
X114053952Y-31059523D01*
X114101571Y-31011904D01*
X114196809Y-30964285D01*
X114434904Y-30964285D01*
X114530142Y-31011904D01*
X114577761Y-31059523D01*
X114625380Y-31154761D01*
X114625380Y-31392857D01*
X114577761Y-31488095D01*
X114530142Y-31535714D01*
%TO.C,FB3*%
X115599571Y-40838333D02*
X115599571Y-41171666D01*
X116123380Y-41171666D02*
X115123380Y-41171666D01*
X115123380Y-40695476D01*
X115599571Y-39981190D02*
X115647190Y-39838333D01*
X115694809Y-39790714D01*
X115790047Y-39743095D01*
X115932904Y-39743095D01*
X116028142Y-39790714D01*
X116075761Y-39838333D01*
X116123380Y-39933571D01*
X116123380Y-40314523D01*
X115123380Y-40314523D01*
X115123380Y-39981190D01*
X115171000Y-39885952D01*
X115218619Y-39838333D01*
X115313857Y-39790714D01*
X115409095Y-39790714D01*
X115504333Y-39838333D01*
X115551952Y-39885952D01*
X115599571Y-39981190D01*
X115599571Y-40314523D01*
X115123380Y-39409761D02*
X115123380Y-38790714D01*
X115504333Y-39124047D01*
X115504333Y-38981190D01*
X115551952Y-38885952D01*
X115599571Y-38838333D01*
X115694809Y-38790714D01*
X115932904Y-38790714D01*
X116028142Y-38838333D01*
X116075761Y-38885952D01*
X116123380Y-38981190D01*
X116123380Y-39266904D01*
X116075761Y-39362142D01*
X116028142Y-39409761D01*
%TO.C,U3*%
X127254095Y-47741380D02*
X127254095Y-48550904D01*
X127301714Y-48646142D01*
X127349333Y-48693761D01*
X127444571Y-48741380D01*
X127635047Y-48741380D01*
X127730285Y-48693761D01*
X127777904Y-48646142D01*
X127825523Y-48550904D01*
X127825523Y-47741380D01*
X128206476Y-47741380D02*
X128825523Y-47741380D01*
X128492190Y-48122333D01*
X128635047Y-48122333D01*
X128730285Y-48169952D01*
X128777904Y-48217571D01*
X128825523Y-48312809D01*
X128825523Y-48550904D01*
X128777904Y-48646142D01*
X128730285Y-48693761D01*
X128635047Y-48741380D01*
X128349333Y-48741380D01*
X128254095Y-48693761D01*
X128206476Y-48646142D01*
%TO.C,R2*%
X121118333Y-20518380D02*
X120785000Y-20042190D01*
X120546904Y-20518380D02*
X120546904Y-19518380D01*
X120927857Y-19518380D01*
X121023095Y-19566000D01*
X121070714Y-19613619D01*
X121118333Y-19708857D01*
X121118333Y-19851714D01*
X121070714Y-19946952D01*
X121023095Y-19994571D01*
X120927857Y-20042190D01*
X120546904Y-20042190D01*
X121499285Y-19613619D02*
X121546904Y-19566000D01*
X121642142Y-19518380D01*
X121880238Y-19518380D01*
X121975476Y-19566000D01*
X122023095Y-19613619D01*
X122070714Y-19708857D01*
X122070714Y-19804095D01*
X122023095Y-19946952D01*
X121451666Y-20518380D01*
X122070714Y-20518380D01*
%TO.C,C9*%
X115657333Y-43029142D02*
X115609714Y-43076761D01*
X115466857Y-43124380D01*
X115371619Y-43124380D01*
X115228761Y-43076761D01*
X115133523Y-42981523D01*
X115085904Y-42886285D01*
X115038285Y-42695809D01*
X115038285Y-42552952D01*
X115085904Y-42362476D01*
X115133523Y-42267238D01*
X115228761Y-42172000D01*
X115371619Y-42124380D01*
X115466857Y-42124380D01*
X115609714Y-42172000D01*
X115657333Y-42219619D01*
X116133523Y-43124380D02*
X116324000Y-43124380D01*
X116419238Y-43076761D01*
X116466857Y-43029142D01*
X116562095Y-42886285D01*
X116609714Y-42695809D01*
X116609714Y-42314857D01*
X116562095Y-42219619D01*
X116514476Y-42172000D01*
X116419238Y-42124380D01*
X116228761Y-42124380D01*
X116133523Y-42172000D01*
X116085904Y-42219619D01*
X116038285Y-42314857D01*
X116038285Y-42552952D01*
X116085904Y-42648190D01*
X116133523Y-42695809D01*
X116228761Y-42743428D01*
X116419238Y-42743428D01*
X116514476Y-42695809D01*
X116562095Y-42648190D01*
X116609714Y-42552952D01*
%TO.C,R7*%
X126094833Y-57601380D02*
X125761500Y-57125190D01*
X125523404Y-57601380D02*
X125523404Y-56601380D01*
X125904357Y-56601380D01*
X125999595Y-56649000D01*
X126047214Y-56696619D01*
X126094833Y-56791857D01*
X126094833Y-56934714D01*
X126047214Y-57029952D01*
X125999595Y-57077571D01*
X125904357Y-57125190D01*
X125523404Y-57125190D01*
X126428166Y-56601380D02*
X127094833Y-56601380D01*
X126666261Y-57601380D01*
D13*
%TO.C,J5*%
X159132000Y-5140000D02*
X159892000Y-5140000D01*
X159892000Y-5140000D02*
X159892000Y-11140000D01*
X157352000Y-14197071D02*
X157352000Y-13800000D01*
X163322000Y-13800000D02*
X163322000Y-11140000D01*
X164212000Y-5140000D02*
X164972000Y-5140000D01*
X148022000Y-13800000D02*
X168462000Y-13800000D01*
X151512000Y-11140000D02*
X151512000Y-5140000D01*
X148972000Y-14130000D02*
X148972000Y-13800000D01*
X161672000Y-14197071D02*
X161672000Y-13800000D01*
X156592000Y-11140000D02*
X156592000Y-5140000D01*
X150622000Y-13800000D02*
X150622000Y-11140000D01*
X166752000Y-14197071D02*
X166752000Y-13800000D01*
X156592000Y-5140000D02*
X157352000Y-5140000D01*
X148972000Y-11140000D02*
X148972000Y-5140000D01*
X157352000Y-5140000D02*
X157352000Y-11140000D01*
X165862000Y-13800000D02*
X165862000Y-11140000D01*
X162432000Y-14197071D02*
X162432000Y-13800000D01*
X154812000Y-14197071D02*
X154812000Y-13800000D01*
X168462000Y-11140000D02*
X148022000Y-11140000D01*
X159132000Y-11140000D02*
X159132000Y-5140000D01*
X158242000Y-13800000D02*
X158242000Y-11140000D01*
X167512000Y-5140000D02*
X167512000Y-11140000D01*
X148082000Y-16510000D02*
X148082000Y-15240000D01*
X164972000Y-5140000D02*
X164972000Y-11140000D01*
X161672000Y-11140000D02*
X161672000Y-5140000D01*
X149352000Y-16510000D02*
X148082000Y-16510000D01*
X154052000Y-5140000D02*
X154812000Y-5140000D01*
X151512000Y-14197071D02*
X151512000Y-13800000D01*
X149152000Y-11140000D02*
X149152000Y-5140000D01*
X167512000Y-14197071D02*
X167512000Y-13800000D01*
X152272000Y-14197071D02*
X152272000Y-13800000D01*
X149392000Y-11140000D02*
X149392000Y-5140000D01*
X156592000Y-14197071D02*
X156592000Y-13800000D01*
X161672000Y-5140000D02*
X162432000Y-5140000D01*
X148972000Y-5140000D02*
X149732000Y-5140000D01*
X149732000Y-5140000D02*
X149732000Y-11140000D01*
X153162000Y-13800000D02*
X153162000Y-11140000D01*
X154052000Y-11140000D02*
X154052000Y-5140000D01*
X164212000Y-11140000D02*
X164212000Y-5140000D01*
X154052000Y-14197071D02*
X154052000Y-13800000D01*
X166752000Y-5140000D02*
X167512000Y-5140000D01*
X168462000Y-13800000D02*
X168462000Y-11140000D01*
X148022000Y-11140000D02*
X148022000Y-13800000D01*
X151512000Y-5140000D02*
X152272000Y-5140000D01*
X160782000Y-13800000D02*
X160782000Y-11140000D01*
X164212000Y-14197071D02*
X164212000Y-13800000D01*
X149512000Y-11140000D02*
X149512000Y-5140000D01*
X152272000Y-5140000D02*
X152272000Y-11140000D01*
X149732000Y-14130000D02*
X149732000Y-13800000D01*
X149032000Y-11140000D02*
X149032000Y-5140000D01*
X164972000Y-14197071D02*
X164972000Y-13800000D01*
X154812000Y-5140000D02*
X154812000Y-11140000D01*
X159132000Y-14197071D02*
X159132000Y-13800000D01*
X149272000Y-11140000D02*
X149272000Y-5140000D01*
X159892000Y-14197071D02*
X159892000Y-13800000D01*
X162432000Y-5140000D02*
X162432000Y-11140000D01*
X155702000Y-13800000D02*
X155702000Y-11140000D01*
X166752000Y-11140000D02*
X166752000Y-5140000D01*
X149632000Y-11140000D02*
X149632000Y-5140000D01*
%TO.C,J4*%
X149712000Y-50736000D02*
X149712000Y-50386000D01*
X148614380Y-59366000D02*
X148614380Y-50736000D01*
X152252000Y-50736000D02*
X152252000Y-50326000D01*
X148022000Y-59366000D02*
X148022000Y-50736000D01*
X164232000Y-50736000D02*
X164232000Y-50326000D01*
X149677235Y-59366000D02*
X149677235Y-50736000D01*
X150149615Y-59366000D02*
X150149615Y-50736000D01*
X148732475Y-59366000D02*
X148732475Y-50736000D01*
X149322950Y-59366000D02*
X149322950Y-50736000D01*
X149913425Y-59366000D02*
X149913425Y-50736000D01*
X148260095Y-59366000D02*
X148260095Y-50736000D01*
X157332000Y-50736000D02*
X157332000Y-50326000D01*
X149441045Y-59366000D02*
X149441045Y-50736000D01*
X162412000Y-50736000D02*
X162412000Y-50326000D01*
X148142000Y-59366000D02*
X148142000Y-50736000D01*
X148496285Y-59366000D02*
X148496285Y-50736000D01*
X154072000Y-50736000D02*
X154072000Y-50326000D01*
X160782000Y-59366000D02*
X160782000Y-50736000D01*
X149086760Y-59366000D02*
X149086760Y-50736000D01*
X161692000Y-50736000D02*
X161692000Y-50326000D01*
X150267710Y-59366000D02*
X150267710Y-50736000D01*
X151532000Y-50736000D02*
X151532000Y-50326000D01*
X155702000Y-59366000D02*
X155702000Y-50736000D01*
X150622000Y-59366000D02*
X150622000Y-50736000D01*
X166772000Y-50736000D02*
X166772000Y-50326000D01*
X163322000Y-59366000D02*
X163322000Y-50736000D01*
X148022000Y-49276000D02*
X148022000Y-48166000D01*
X148968665Y-59366000D02*
X148968665Y-50736000D01*
X148850570Y-59366000D02*
X148850570Y-50736000D01*
X167492000Y-50736000D02*
X167492000Y-50326000D01*
X148022000Y-48166000D02*
X149352000Y-48166000D01*
X148378190Y-59366000D02*
X148378190Y-50736000D01*
X150503900Y-59366000D02*
X150503900Y-50736000D01*
X148992000Y-50736000D02*
X148992000Y-50386000D01*
X159872000Y-50736000D02*
X159872000Y-50326000D01*
X148022000Y-59366000D02*
X168462000Y-59366000D01*
X156612000Y-50736000D02*
X156612000Y-50326000D01*
X149204855Y-59366000D02*
X149204855Y-50736000D01*
X148022000Y-50736000D02*
X168462000Y-50736000D01*
X158242000Y-59366000D02*
X158242000Y-50736000D01*
X149795330Y-59366000D02*
X149795330Y-50736000D01*
X154792000Y-50736000D02*
X154792000Y-50326000D01*
X164952000Y-50736000D02*
X164952000Y-50326000D01*
X153162000Y-59366000D02*
X153162000Y-50736000D01*
X159152000Y-50736000D02*
X159152000Y-50326000D01*
X165862000Y-59366000D02*
X165862000Y-50736000D01*
X150031520Y-59366000D02*
X150031520Y-50736000D01*
X150385805Y-59366000D02*
X150385805Y-50736000D01*
X149559140Y-59366000D02*
X149559140Y-50736000D01*
X168462000Y-59366000D02*
X168462000Y-50736000D01*
%TO.C,C10*%
X119811748Y-38333000D02*
X121234252Y-38333000D01*
X119811748Y-40153000D02*
X121234252Y-40153000D01*
%TO.C,R6*%
X135609000Y-52678064D02*
X135609000Y-52223936D01*
X134139000Y-52678064D02*
X134139000Y-52223936D01*
%TO.C,R3*%
X118083000Y-16536936D02*
X118083000Y-16991064D01*
X116613000Y-16536936D02*
X116613000Y-16991064D01*
%TO.C,C6*%
X123290000Y-35694252D02*
X123290000Y-35171748D01*
X121820000Y-35694252D02*
X121820000Y-35171748D01*
%TO.C,R8*%
X130044564Y-54764000D02*
X129590436Y-54764000D01*
X130044564Y-56234000D02*
X129590436Y-56234000D01*
%TO.C,JP1*%
X116329000Y-35449000D02*
X119129000Y-35449000D01*
X119129000Y-37449000D02*
X116329000Y-37449000D01*
X116329000Y-37449000D02*
X116329000Y-35449000D01*
X119129000Y-35449000D02*
X119129000Y-37449000D01*
%TO.C,L1*%
X132351000Y-48531000D02*
X124951000Y-48531000D01*
X124951000Y-48531000D02*
X124951000Y-46231000D01*
X124951000Y-43431000D02*
X124951000Y-41131000D01*
X132351000Y-41131000D02*
X132351000Y-43431000D01*
X124951000Y-41131000D02*
X132351000Y-41131000D01*
X132351000Y-46231000D02*
X132351000Y-48531000D01*
%TO.C,FB1*%
X122838242Y-29031000D02*
X122017758Y-29031000D01*
X122838242Y-30151000D02*
X122017758Y-30151000D01*
%TO.C,TP1*%
X143931000Y-51121000D02*
X143931000Y-53781000D01*
X141331000Y-51121000D02*
X141331000Y-53781000D01*
X143931000Y-53781000D02*
X141331000Y-53781000D01*
X143931000Y-51121000D02*
X141331000Y-51121000D01*
X145201000Y-51121000D02*
X146531000Y-51121000D01*
X146531000Y-51121000D02*
X146531000Y-52451000D01*
%TO.C,C4*%
X123417000Y-53440064D02*
X123417000Y-52985936D01*
X121947000Y-53440064D02*
X121947000Y-52985936D01*
%TO.C,J3*%
X182880000Y-13910000D02*
X170120000Y-13910000D01*
X184150000Y-13910000D02*
X185480000Y-13910000D01*
X185480000Y-13910000D02*
X185480000Y-15240000D01*
X182880000Y-13910000D02*
X182880000Y-16570000D01*
X170120000Y-13910000D02*
X170120000Y-16570000D01*
X182880000Y-16570000D02*
X170120000Y-16570000D01*
%TO.C,D1*%
X123316000Y-50009000D02*
X123316000Y-44609000D01*
X120016000Y-50009000D02*
X120016000Y-44609000D01*
X120016000Y-50009000D02*
X123316000Y-50009000D01*
%TO.C,C8*%
X119788000Y-35694252D02*
X119788000Y-35171748D01*
X121258000Y-35694252D02*
X121258000Y-35171748D01*
%TO.C,C3*%
X132107000Y-54617252D02*
X132107000Y-54094748D01*
X133577000Y-54617252D02*
X133577000Y-54094748D01*
%TO.C,C1*%
X120750000Y-25773748D02*
X120750000Y-26296252D01*
X119280000Y-25773748D02*
X119280000Y-26296252D01*
%TO.C,FB2*%
X126013242Y-37009000D02*
X125192758Y-37009000D01*
X126013242Y-35889000D02*
X125192758Y-35889000D01*
%TO.C,R4*%
X116740000Y-26262064D02*
X116740000Y-25807936D01*
X118210000Y-26262064D02*
X118210000Y-25807936D01*
%TO.C,J1*%
X176891000Y-23261000D02*
X176891000Y-25861000D01*
X179491000Y-20661000D02*
X179491000Y-23261000D01*
X179491000Y-23261000D02*
X176891000Y-23261000D01*
X128571000Y-20661000D02*
X128571000Y-25861000D01*
X179491000Y-25861000D02*
X178161000Y-25861000D01*
X176891000Y-25861000D02*
X128571000Y-25861000D01*
X179491000Y-20661000D02*
X128571000Y-20661000D01*
X179491000Y-24531000D02*
X179491000Y-25861000D01*
%TO.C,C7*%
X118772000Y-30345748D02*
X118772000Y-30868252D01*
X120242000Y-30345748D02*
X120242000Y-30868252D01*
%TO.C,R5*%
X132107000Y-50445936D02*
X132107000Y-50900064D01*
X133577000Y-50445936D02*
X133577000Y-50900064D01*
%TO.C,C2*%
X118498252Y-23468000D02*
X117975748Y-23468000D01*
X118498252Y-21998000D02*
X117975748Y-21998000D01*
%TO.C,R1*%
X123544064Y-24284000D02*
X123089936Y-24284000D01*
X123544064Y-25754000D02*
X123089936Y-25754000D01*
%TO.C,C5*%
X116613000Y-30345748D02*
X116613000Y-30868252D01*
X118083000Y-30345748D02*
X118083000Y-30868252D01*
%TO.C,J2*%
X131171000Y-28341000D02*
X131171000Y-30941000D01*
X131171000Y-30941000D02*
X128571000Y-30941000D01*
X133771000Y-30941000D02*
X132441000Y-30941000D01*
X133771000Y-25741000D02*
X128571000Y-25741000D01*
X128571000Y-25741000D02*
X128571000Y-30941000D01*
X133771000Y-25741000D02*
X133771000Y-28341000D01*
X133771000Y-28341000D02*
X131171000Y-28341000D01*
X133771000Y-29611000D02*
X133771000Y-30941000D01*
%TO.C,FB3*%
X117781000Y-40415242D02*
X117781000Y-39594758D01*
X116661000Y-40415242D02*
X116661000Y-39594758D01*
%TO.C,U3*%
X128016000Y-54249000D02*
X129966000Y-54249000D01*
X128016000Y-49129000D02*
X129966000Y-49129000D01*
X128016000Y-49129000D02*
X124566000Y-49129000D01*
X128016000Y-54249000D02*
X126066000Y-54249000D01*
%TO.C,R2*%
X118591064Y-20801000D02*
X118136936Y-20801000D01*
X118591064Y-19331000D02*
X118136936Y-19331000D01*
%TO.C,C9*%
X119811748Y-40873000D02*
X121234252Y-40873000D01*
X119811748Y-42693000D02*
X121234252Y-42693000D01*
%TO.C,R7*%
X126488564Y-56234000D02*
X126034436Y-56234000D01*
X126488564Y-54764000D02*
X126034436Y-54764000D01*
%TD*%
M02*
