%FSLAX45Y45*%
G04 Gerber Fmt 4.5, Leading zero omitted, Abs format (unit mm)*
G04 Created by KiCad (PCBNEW (6.0.4-0)) date 2022-10-27 23:32:21*
%MOMM*%
%LPD*%
G01*
G04 APERTURE LIST*
%TA.AperFunction,Profile*%
%ADD10C,0.100000*%
%TD*%
%ADD11C,0.200000*%
%ADD12C,0.115200*%
G04 APERTURE END LIST*
D10*
X9993920Y-1270000D02*
X18790920Y-1270000D01*
X18790920Y-1270000D02*
X18790920Y-5929000D01*
X18790920Y-5929000D02*
X9993920Y-5929000D01*
X9993920Y-5929000D02*
X9993920Y-1270000D01*
D11*
D12*
X10072400Y-1652400D02*
X10187600Y-1767600D01*
X10187600Y-1652400D02*
X10072400Y-1767600D01*
X18592400Y-5722400D02*
X18707600Y-5837600D01*
X18707600Y-5722400D02*
X18592400Y-5837600D01*
D11*
X10246539Y-6244476D02*
X10246539Y-6044476D01*
X10294158Y-6044476D01*
X10322730Y-6054000D01*
X10341777Y-6073048D01*
X10351301Y-6092095D01*
X10360825Y-6130190D01*
X10360825Y-6158762D01*
X10351301Y-6196857D01*
X10341777Y-6215905D01*
X10322730Y-6234952D01*
X10294158Y-6244476D01*
X10246539Y-6244476D01*
X10446539Y-6244476D02*
X10446539Y-6111143D01*
X10446539Y-6149238D02*
X10456063Y-6130190D01*
X10465587Y-6120667D01*
X10484634Y-6111143D01*
X10503682Y-6111143D01*
X10570349Y-6244476D02*
X10570349Y-6111143D01*
X10570349Y-6044476D02*
X10560825Y-6054000D01*
X10570349Y-6063524D01*
X10579872Y-6054000D01*
X10570349Y-6044476D01*
X10570349Y-6063524D01*
X10694158Y-6244476D02*
X10675110Y-6234952D01*
X10665587Y-6215905D01*
X10665587Y-6044476D01*
X10798920Y-6244476D02*
X10779872Y-6234952D01*
X10770349Y-6215905D01*
X10770349Y-6044476D01*
X11027491Y-6244476D02*
X11027491Y-6044476D01*
X11094158Y-6187333D01*
X11160825Y-6044476D01*
X11160825Y-6244476D01*
X11341777Y-6244476D02*
X11341777Y-6139714D01*
X11332253Y-6120667D01*
X11313206Y-6111143D01*
X11275110Y-6111143D01*
X11256063Y-6120667D01*
X11341777Y-6234952D02*
X11322729Y-6244476D01*
X11275110Y-6244476D01*
X11256063Y-6234952D01*
X11246539Y-6215905D01*
X11246539Y-6196857D01*
X11256063Y-6177809D01*
X11275110Y-6168286D01*
X11322729Y-6168286D01*
X11341777Y-6158762D01*
X11437015Y-6111143D02*
X11437015Y-6311143D01*
X11437015Y-6120667D02*
X11456063Y-6111143D01*
X11494158Y-6111143D01*
X11513206Y-6120667D01*
X11522729Y-6130190D01*
X11532253Y-6149238D01*
X11532253Y-6206381D01*
X11522729Y-6225428D01*
X11513206Y-6234952D01*
X11494158Y-6244476D01*
X11456063Y-6244476D01*
X11437015Y-6234952D01*
X11617968Y-6225428D02*
X11627491Y-6234952D01*
X11617968Y-6244476D01*
X11608444Y-6234952D01*
X11617968Y-6225428D01*
X11617968Y-6244476D01*
X11617968Y-6120667D02*
X11627491Y-6130190D01*
X11617968Y-6139714D01*
X11608444Y-6130190D01*
X11617968Y-6120667D01*
X11617968Y-6139714D01*
D12*
X9873720Y-6516400D02*
X9988920Y-6631600D01*
X9988920Y-6516400D02*
X9873720Y-6631600D01*
D11*
X10351301Y-6664476D02*
X10237015Y-6664476D01*
X10294158Y-6664476D02*
X10294158Y-6464476D01*
X10275110Y-6493048D01*
X10256063Y-6512095D01*
X10237015Y-6521619D01*
X10437015Y-6645428D02*
X10446539Y-6654952D01*
X10437015Y-6664476D01*
X10427491Y-6654952D01*
X10437015Y-6645428D01*
X10437015Y-6664476D01*
X10637015Y-6664476D02*
X10522730Y-6664476D01*
X10579872Y-6664476D02*
X10579872Y-6464476D01*
X10560825Y-6493048D01*
X10541777Y-6512095D01*
X10522730Y-6521619D01*
X10817968Y-6464476D02*
X10722730Y-6464476D01*
X10713206Y-6559714D01*
X10722730Y-6550190D01*
X10741777Y-6540667D01*
X10789396Y-6540667D01*
X10808444Y-6550190D01*
X10817968Y-6559714D01*
X10827491Y-6578762D01*
X10827491Y-6626381D01*
X10817968Y-6645428D01*
X10808444Y-6654952D01*
X10789396Y-6664476D01*
X10741777Y-6664476D01*
X10722730Y-6654952D01*
X10713206Y-6645428D01*
X10903682Y-6483524D02*
X10913206Y-6474000D01*
X10932253Y-6464476D01*
X10979872Y-6464476D01*
X10998920Y-6474000D01*
X11008444Y-6483524D01*
X11017968Y-6502571D01*
X11017968Y-6521619D01*
X11008444Y-6550190D01*
X10894158Y-6664476D01*
X11017968Y-6664476D01*
X11103682Y-6664476D02*
X11103682Y-6531143D01*
X11103682Y-6550190D02*
X11113206Y-6540667D01*
X11132253Y-6531143D01*
X11160825Y-6531143D01*
X11179872Y-6540667D01*
X11189396Y-6559714D01*
X11189396Y-6664476D01*
X11189396Y-6559714D02*
X11198920Y-6540667D01*
X11217968Y-6531143D01*
X11246539Y-6531143D01*
X11265587Y-6540667D01*
X11275110Y-6559714D01*
X11275110Y-6664476D01*
X11370348Y-6664476D02*
X11370348Y-6531143D01*
X11370348Y-6550190D02*
X11379872Y-6540667D01*
X11398920Y-6531143D01*
X11427491Y-6531143D01*
X11446539Y-6540667D01*
X11456063Y-6559714D01*
X11456063Y-6664476D01*
X11456063Y-6559714D02*
X11465587Y-6540667D01*
X11484634Y-6531143D01*
X11513206Y-6531143D01*
X11532253Y-6540667D01*
X11541777Y-6559714D01*
X11541777Y-6664476D01*
X11932253Y-6454952D02*
X11760825Y-6712095D01*
X12189396Y-6464476D02*
X12208444Y-6464476D01*
X12227491Y-6474000D01*
X12237015Y-6483524D01*
X12246539Y-6502571D01*
X12256063Y-6540667D01*
X12256063Y-6588286D01*
X12246539Y-6626381D01*
X12237015Y-6645428D01*
X12227491Y-6654952D01*
X12208444Y-6664476D01*
X12189396Y-6664476D01*
X12170348Y-6654952D01*
X12160825Y-6645428D01*
X12151301Y-6626381D01*
X12141777Y-6588286D01*
X12141777Y-6540667D01*
X12151301Y-6502571D01*
X12160825Y-6483524D01*
X12170348Y-6474000D01*
X12189396Y-6464476D01*
X12341777Y-6645428D02*
X12351301Y-6654952D01*
X12341777Y-6664476D01*
X12332253Y-6654952D01*
X12341777Y-6645428D01*
X12341777Y-6664476D01*
X12475110Y-6464476D02*
X12494158Y-6464476D01*
X12513206Y-6474000D01*
X12522729Y-6483524D01*
X12532253Y-6502571D01*
X12541777Y-6540667D01*
X12541777Y-6588286D01*
X12532253Y-6626381D01*
X12522729Y-6645428D01*
X12513206Y-6654952D01*
X12494158Y-6664476D01*
X12475110Y-6664476D01*
X12456063Y-6654952D01*
X12446539Y-6645428D01*
X12437015Y-6626381D01*
X12427491Y-6588286D01*
X12427491Y-6540667D01*
X12437015Y-6502571D01*
X12446539Y-6483524D01*
X12456063Y-6474000D01*
X12475110Y-6464476D01*
X12713206Y-6531143D02*
X12713206Y-6664476D01*
X12665587Y-6454952D02*
X12617968Y-6597809D01*
X12741777Y-6597809D01*
X12913206Y-6464476D02*
X12817968Y-6464476D01*
X12808444Y-6559714D01*
X12817968Y-6550190D01*
X12837015Y-6540667D01*
X12884634Y-6540667D01*
X12903682Y-6550190D01*
X12913206Y-6559714D01*
X12922729Y-6578762D01*
X12922729Y-6626381D01*
X12913206Y-6645428D01*
X12903682Y-6654952D01*
X12884634Y-6664476D01*
X12837015Y-6664476D01*
X12817968Y-6654952D01*
X12808444Y-6645428D01*
X13094158Y-6531143D02*
X13094158Y-6664476D01*
X13046539Y-6454952D02*
X12998920Y-6597809D01*
X13122729Y-6597809D01*
X13189396Y-6464476D02*
X13189396Y-6502571D01*
X13265587Y-6464476D02*
X13265587Y-6502571D01*
X13560825Y-6740667D02*
X13551301Y-6731143D01*
X13532253Y-6702571D01*
X13522729Y-6683524D01*
X13513206Y-6654952D01*
X13503682Y-6607333D01*
X13503682Y-6569238D01*
X13513206Y-6521619D01*
X13522729Y-6493048D01*
X13532253Y-6474000D01*
X13551301Y-6445428D01*
X13560825Y-6435905D01*
X13627491Y-6483524D02*
X13637015Y-6474000D01*
X13656063Y-6464476D01*
X13703682Y-6464476D01*
X13722729Y-6474000D01*
X13732253Y-6483524D01*
X13741777Y-6502571D01*
X13741777Y-6521619D01*
X13732253Y-6550190D01*
X13617968Y-6664476D01*
X13741777Y-6664476D01*
X13979872Y-6664476D02*
X13979872Y-6464476D01*
X14065587Y-6664476D02*
X14065587Y-6559714D01*
X14056063Y-6540667D01*
X14037015Y-6531143D01*
X14008444Y-6531143D01*
X13989396Y-6540667D01*
X13979872Y-6550190D01*
X14189396Y-6664476D02*
X14170348Y-6654952D01*
X14160825Y-6645428D01*
X14151301Y-6626381D01*
X14151301Y-6569238D01*
X14160825Y-6550190D01*
X14170348Y-6540667D01*
X14189396Y-6531143D01*
X14217968Y-6531143D01*
X14237015Y-6540667D01*
X14246539Y-6550190D01*
X14256063Y-6569238D01*
X14256063Y-6626381D01*
X14246539Y-6645428D01*
X14237015Y-6654952D01*
X14217968Y-6664476D01*
X14189396Y-6664476D01*
X14370348Y-6664476D02*
X14351301Y-6654952D01*
X14341777Y-6635905D01*
X14341777Y-6464476D01*
X14522729Y-6654952D02*
X14503682Y-6664476D01*
X14465587Y-6664476D01*
X14446539Y-6654952D01*
X14437015Y-6635905D01*
X14437015Y-6559714D01*
X14446539Y-6540667D01*
X14465587Y-6531143D01*
X14503682Y-6531143D01*
X14522729Y-6540667D01*
X14532253Y-6559714D01*
X14532253Y-6578762D01*
X14437015Y-6597809D01*
X14608444Y-6654952D02*
X14627491Y-6664476D01*
X14665587Y-6664476D01*
X14684634Y-6654952D01*
X14694158Y-6635905D01*
X14694158Y-6626381D01*
X14684634Y-6607333D01*
X14665587Y-6597809D01*
X14637015Y-6597809D01*
X14617968Y-6588286D01*
X14608444Y-6569238D01*
X14608444Y-6559714D01*
X14617968Y-6540667D01*
X14637015Y-6531143D01*
X14665587Y-6531143D01*
X14684634Y-6540667D01*
X14760825Y-6740667D02*
X14770348Y-6731143D01*
X14789396Y-6702571D01*
X14798920Y-6683524D01*
X14808444Y-6654952D01*
X14817968Y-6607333D01*
X14817968Y-6569238D01*
X14808444Y-6521619D01*
X14798920Y-6493048D01*
X14789396Y-6474000D01*
X14770348Y-6445428D01*
X14760825Y-6435905D01*
X15122729Y-6740667D02*
X15113206Y-6731143D01*
X15094158Y-6702571D01*
X15084634Y-6683524D01*
X15075110Y-6654952D01*
X15065587Y-6607333D01*
X15065587Y-6569238D01*
X15075110Y-6521619D01*
X15084634Y-6493048D01*
X15094158Y-6474000D01*
X15113206Y-6445428D01*
X15122729Y-6435905D01*
X15198920Y-6531143D02*
X15198920Y-6664476D01*
X15198920Y-6550190D02*
X15208444Y-6540667D01*
X15227491Y-6531143D01*
X15256063Y-6531143D01*
X15275110Y-6540667D01*
X15284634Y-6559714D01*
X15284634Y-6664476D01*
X15408444Y-6664476D02*
X15389396Y-6654952D01*
X15379872Y-6645428D01*
X15370348Y-6626381D01*
X15370348Y-6569238D01*
X15379872Y-6550190D01*
X15389396Y-6540667D01*
X15408444Y-6531143D01*
X15437015Y-6531143D01*
X15456063Y-6540667D01*
X15465587Y-6550190D01*
X15475110Y-6569238D01*
X15475110Y-6626381D01*
X15465587Y-6645428D01*
X15456063Y-6654952D01*
X15437015Y-6664476D01*
X15408444Y-6664476D01*
X15532253Y-6531143D02*
X15608444Y-6531143D01*
X15560825Y-6464476D02*
X15560825Y-6635905D01*
X15570348Y-6654952D01*
X15589396Y-6664476D01*
X15608444Y-6664476D01*
X15827491Y-6531143D02*
X15827491Y-6731143D01*
X15827491Y-6540667D02*
X15846539Y-6531143D01*
X15884634Y-6531143D01*
X15903682Y-6540667D01*
X15913206Y-6550190D01*
X15922729Y-6569238D01*
X15922729Y-6626381D01*
X15913206Y-6645428D01*
X15903682Y-6654952D01*
X15884634Y-6664476D01*
X15846539Y-6664476D01*
X15827491Y-6654952D01*
X16037015Y-6664476D02*
X16017968Y-6654952D01*
X16008444Y-6635905D01*
X16008444Y-6464476D01*
X16198920Y-6664476D02*
X16198920Y-6559714D01*
X16189396Y-6540667D01*
X16170348Y-6531143D01*
X16132253Y-6531143D01*
X16113206Y-6540667D01*
X16198920Y-6654952D02*
X16179872Y-6664476D01*
X16132253Y-6664476D01*
X16113206Y-6654952D01*
X16103682Y-6635905D01*
X16103682Y-6616857D01*
X16113206Y-6597809D01*
X16132253Y-6588286D01*
X16179872Y-6588286D01*
X16198920Y-6578762D01*
X16265587Y-6531143D02*
X16341777Y-6531143D01*
X16294158Y-6464476D02*
X16294158Y-6635905D01*
X16303682Y-6654952D01*
X16322729Y-6664476D01*
X16341777Y-6664476D01*
X16484634Y-6654952D02*
X16465587Y-6664476D01*
X16427491Y-6664476D01*
X16408444Y-6654952D01*
X16398920Y-6635905D01*
X16398920Y-6559714D01*
X16408444Y-6540667D01*
X16427491Y-6531143D01*
X16465587Y-6531143D01*
X16484634Y-6540667D01*
X16494158Y-6559714D01*
X16494158Y-6578762D01*
X16398920Y-6597809D01*
X16665587Y-6664476D02*
X16665587Y-6464476D01*
X16665587Y-6654952D02*
X16646539Y-6664476D01*
X16608444Y-6664476D01*
X16589396Y-6654952D01*
X16579872Y-6645428D01*
X16570348Y-6626381D01*
X16570348Y-6569238D01*
X16579872Y-6550190D01*
X16589396Y-6540667D01*
X16608444Y-6531143D01*
X16646539Y-6531143D01*
X16665587Y-6540667D01*
X16741777Y-6740667D02*
X16751301Y-6731143D01*
X16770348Y-6702571D01*
X16779872Y-6683524D01*
X16789396Y-6654952D01*
X16798920Y-6607333D01*
X16798920Y-6569238D01*
X16789396Y-6521619D01*
X16779872Y-6493048D01*
X16770348Y-6474000D01*
X16751301Y-6445428D01*
X16741777Y-6435905D01*
M02*
